<svg id="Layer_1" data-name="Layer 1" xmlns="http://www.w3.org/2000/svg" xmlns:xlink="http://www.w3.org/1999/xlink" viewBox="0 0 800 800"><defs><style>.cls-1{fill:url(#linear-gradient);}.cls-2{fill:url(#linear-gradient-2);}.cls-3{fill:url(#linear-gradient-3);}</style><linearGradient id="linear-gradient" x1="442.47" y1="496.43" x2="139.22" y2="496.43" gradientUnits="userSpaceOnUse"><stop offset="0" stop-color="#1b1d1f"/><stop offset="1" stop-color="#151618"/></linearGradient><linearGradient id="linear-gradient-2" x1="48.94" y1="400" x2="751.06" y2="400" gradientUnits="userSpaceOnUse"><stop offset="0" stop-color="#0285f7"/><stop offset="0.06" stop-color="#0282f6"/><stop offset="0.64" stop-color="#006af2"/><stop offset="1" stop-color="#0061f0"/></linearGradient><linearGradient id="linear-gradient-3" x1="357.53" y1="496.43" x2="660.78" y2="496.43" xlink:href="#linear-gradient"/></defs><title>favicon-dark</title><path class="cls-1" d="M177.78,218a42.27,42.27,0,0,0-34.65,59.82L361.89,750.49A42.23,42.23,0,0,0,438.55,715L219.79,242.37A42.24,42.24,0,0,0,177.78,218Z"/><path class="cls-2" d="M745.79,694.25l-291.13-629A56.81,56.81,0,0,0,400.86,25h-1.72a56.81,56.81,0,0,0-53.8,40.23l-291.13,629A56.85,56.85,0,1,0,157.4,742L400,217.86,642.6,742a56.85,56.85,0,1,0,103.19-47.76Z"/><path class="cls-3" d="M622.22,218a42.27,42.27,0,0,1,34.65,59.82L438.11,750.49A42.23,42.23,0,0,1,361.45,715L580.21,242.37A42.24,42.24,0,0,1,622.22,218Z"/></svg>