<svg width="100" height="100" viewBox="0 0 100 100" fill="none" xmlns="http://www.w3.org/2000/svg">
<rect width="100" height="100" rx="50" fill="#181A1C"/>
<path d="M32.4446 32.7125C31.896 32.7611 31.3672 32.9409 30.9027 33.2367C30.4382 33.5325 30.0517 33.9356 29.7757 34.4121C29.4997 34.8887 29.3423 35.4246 29.3168 35.9746C29.2913 36.5247 29.3985 37.0729 29.6293 37.5729L47.4035 75.9773C47.7859 76.8033 48.4807 77.4435 49.3352 77.7572C50.1896 78.0709 51.1336 78.0322 51.9596 77.6499C52.7856 77.2675 53.4258 76.5726 53.7395 75.7182C54.0531 74.8638 54.0145 73.9197 53.6321 73.0938L35.8579 34.6926C35.5618 34.0515 35.0751 33.5173 34.4643 33.1629C33.8534 32.8086 33.1481 32.6513 32.4446 32.7125Z" fill="white"/>
<path d="M78.5955 71.4078L54.9411 20.3016C54.655 19.3624 54.0769 18.539 53.2908 17.9509C52.5047 17.3628 51.5516 17.0406 50.5699 17.0312H50.4301C49.4487 17.0405 48.4957 17.3625 47.7096 17.9503C46.9235 18.5381 46.3453 19.3611 46.0589 20.2999L22.4046 71.4062C22.1497 71.9567 22.0058 72.552 21.981 73.1582C21.9562 73.7643 22.0511 74.3694 22.2602 74.9389C22.4692 75.5083 22.7884 76.0311 23.1995 76.4772C23.6106 76.9233 24.1055 77.2841 24.656 77.5389C25.2065 77.7938 25.8019 77.9377 26.408 77.9625C27.0141 77.9873 27.6192 77.8924 28.1887 77.6834C28.7582 77.4743 29.2809 77.1551 29.727 76.744C30.1731 76.3329 30.5339 75.838 30.7888 75.2875L50.5 32.7011L70.2113 75.2875C70.4661 75.838 70.8268 76.333 71.2729 76.7441C71.7189 77.1552 72.2416 77.4744 72.8111 77.6835C73.3805 77.8926 73.9856 77.9875 74.5917 77.9627C75.1978 77.938 75.7931 77.7941 76.3436 77.5393C76.8941 77.2846 77.3891 76.9238 77.8002 76.4777C78.2113 76.0317 78.5305 75.509 78.7396 74.9395C78.9487 74.3701 79.0436 73.7651 79.0189 73.1589C78.9941 72.5528 78.8502 71.9575 78.5955 71.407V71.4078Z" fill="url(#paint0_linear_55_32)"/>
<path d="M68.5554 32.7125C69.1039 32.7611 69.6328 32.9409 70.0972 33.2367C70.5617 33.5325 70.9483 33.9356 71.2243 34.4121C71.5003 34.8887 71.6577 35.4246 71.6832 35.9746C71.7087 36.5247 71.6015 37.0729 71.3707 37.5729L53.5965 75.9773C53.2141 76.8033 52.5192 77.4435 51.6648 77.7572C50.8104 78.0709 49.8663 78.0322 49.0404 77.6499C48.2144 77.2675 47.5742 76.5726 47.2605 75.7182C46.9469 74.8638 46.9855 73.9197 47.3678 73.0938L65.1421 34.6926C65.4382 34.0515 65.9249 33.5173 66.5357 33.1629C67.1466 32.8086 67.8519 32.6513 68.5554 32.7125Z" fill="white"/>
<defs>
<linearGradient id="paint0_linear_55_32" x1="21.9764" y1="47.5" x2="79.0236" y2="47.5" gradientUnits="userSpaceOnUse">
<stop stop-color="#0285F7"/>
<stop offset="0.06" stop-color="#0282F6"/>
<stop offset="0.64" stop-color="#006AF2"/>
<stop offset="1" stop-color="#0061F0"/>
</linearGradient>
</defs>
</svg>
