<svg width="24" height="15" viewBox="0 0 24 15" fill="none" xmlns="http://www.w3.org/2000/svg">
<path d="M6.76286 5.22185C6.76286 5.51716 6.79568 5.75622 6.85193 5.92965C6.91755 6.10778 6.99724 6.29996 7.10974 6.50621C7.15192 6.56715 7.16599 6.63277 7.16599 6.68902C7.16599 6.76871 7.11911 6.8484 7.01599 6.92809L6.51443 7.2609C6.45349 7.30308 6.38318 7.33121 6.30818 7.33121C6.22849 7.33121 6.1488 7.28902 6.06912 7.21871C5.96131 7.10152 5.86756 6.97965 5.78318 6.84371C5.69412 6.68903 5.60975 6.53434 5.53475 6.37496C4.91131 7.1109 4.1285 7.47652 3.18632 7.47652C2.51601 7.47652 1.98164 7.28433 1.59258 6.90465C1.20352 6.52028 1.00196 6.00934 1.00196 5.37184C1.00196 4.69216 1.24102 4.14373 1.72852 3.72654C2.21601 3.30936 2.86289 3.10311 3.68319 3.10311C3.95507 3.10311 4.23632 3.12654 4.52694 3.16873C4.82225 3.21092 5.12694 3.27186 5.44568 3.34686V2.76561C5.44568 2.16093 5.31912 1.73436 5.07069 1.49062C4.81756 1.24218 4.38631 1.12499 3.77226 1.12499C3.49101 1.12499 3.20507 1.15781 2.90976 1.22812C2.61445 1.29843 2.32851 1.38749 2.04727 1.49999C1.9582 1.54218 1.86445 1.57499 1.76602 1.60312C1.72383 1.61718 1.68164 1.62187 1.63945 1.62655C1.52696 1.62655 1.47071 1.54687 1.47071 1.37812V0.989056C1.47071 0.862494 1.48477 0.764057 1.52696 0.707807C1.58789 0.637495 1.66289 0.576559 1.75195 0.53906C2.0332 0.393748 2.36601 0.27656 2.75507 0.178123C3.16288 0.074999 3.58007 0.0234362 4.00194 0.0281237C4.9535 0.0281237 5.64725 0.243748 6.09256 0.674996C6.53318 1.10624 6.75349 1.7578 6.75349 2.63905V5.22653L6.76286 5.22185ZM3.52382 6.4359C3.78632 6.4359 4.05819 6.38903 4.34413 6.29059C4.63006 6.19684 4.88787 6.01872 5.1035 5.77965C5.23006 5.62966 5.3285 5.46091 5.37537 5.26872C5.42225 5.07653 5.45506 4.84685 5.45506 4.57497V4.24216C5.21131 4.18123 4.96756 4.13904 4.71913 4.10623C4.47069 4.07341 4.21757 4.05935 3.96913 4.05935C3.43476 4.05935 3.04101 4.16248 2.77851 4.3781C2.51601 4.59372 2.38945 4.89841 2.38945 5.29685C2.38945 5.67184 2.4832 5.95309 2.68476 6.14059C2.87695 6.34215 3.15351 6.4359 3.52382 6.4359ZM9.9316 7.2984C9.78628 7.2984 9.69253 7.27496 9.62691 7.21871C9.56129 7.17184 9.50504 7.05933 9.45816 6.90933L7.58317 0.74062C7.54567 0.637496 7.52223 0.529685 7.51286 0.421873C7.51286 0.295311 7.57848 0.22031 7.70505 0.22031H8.48785C8.63785 0.22031 8.74098 0.243748 8.79723 0.299998C8.86285 0.346873 8.90973 0.459371 8.9566 0.614058L10.2972 5.89684L11.5441 0.614058C11.5863 0.454684 11.6331 0.35156 11.6941 0.299998C11.7878 0.239061 11.9003 0.210935 12.0128 0.22031H12.655C12.805 0.22031 12.9128 0.243748 12.9738 0.299998C13.0347 0.346873 13.0956 0.459371 13.1238 0.614058L14.3847 5.96247L15.7675 0.614058C15.8144 0.454684 15.8706 0.35156 15.9269 0.299998C16.0206 0.239061 16.1284 0.210935 16.2362 0.22031H16.9816C17.1081 0.22031 17.1831 0.285936 17.1831 0.421873C17.1831 0.46406 17.1737 0.501559 17.1644 0.548434C17.1503 0.618746 17.1316 0.684371 17.1081 0.749996L15.1863 6.91871C15.1394 7.07808 15.0831 7.18121 15.0175 7.22809C14.9284 7.28434 14.8206 7.31246 14.7128 7.30777H14.0238C13.8738 7.30777 13.7706 7.28434 13.705 7.22809C13.6441 7.17184 13.5878 7.06871 13.555 6.90933L12.3175 1.76249L11.0894 6.90465C11.0472 7.06402 11.0003 7.16715 10.9394 7.2234C10.8738 7.27965 10.7613 7.30308 10.6207 7.30308L9.9316 7.2984ZM20.1878 7.51402C19.7706 7.51402 19.3581 7.46715 18.9597 7.36871C18.5612 7.27496 18.2519 7.16715 18.0409 7.04996C17.9144 6.97965 17.8253 6.89996 17.7925 6.82496C17.7597 6.75465 17.7456 6.67965 17.7456 6.59996V6.19215C17.7456 6.0234 17.8112 5.94372 17.9284 5.94372C17.9753 5.94372 18.0222 5.95309 18.0737 5.96715C18.1206 5.98122 18.1956 6.01403 18.2753 6.04684C18.5472 6.16872 18.8425 6.26247 19.1519 6.32809C19.4706 6.39371 19.78 6.42184 20.1034 6.42184C20.605 6.42184 20.9987 6.33278 21.2706 6.15934C21.5331 5.99997 21.6925 5.70934 21.6878 5.39997C21.6925 5.19372 21.6175 4.99216 21.4722 4.84216C21.3268 4.69216 21.055 4.55622 20.6659 4.42498L19.5081 4.06404C18.9269 3.88123 18.4956 3.60935 18.2331 3.25311C17.9753 2.9203 17.8347 2.51249 17.8347 2.0953C17.8347 1.76249 17.9097 1.46718 18.0503 1.20937C18.1956 0.956244 18.3831 0.731245 18.6269 0.553121C18.8659 0.37031 19.1378 0.234373 19.4565 0.135936C19.7753 0.042187 20.1128 0 20.4643 0C20.6378 0 20.8253 0.00937409 20.9987 0.0328115C21.1815 0.0562488 21.3503 0.0890609 21.519 0.121873C21.6784 0.16406 21.8331 0.201561 21.9737 0.248436C22.119 0.29531 22.2315 0.342185 22.3112 0.393748C22.405 0.440622 22.4893 0.510934 22.5503 0.595308C22.6018 0.674995 22.6253 0.764058 22.6206 0.857807V1.23281C22.6206 1.40155 22.555 1.49062 22.4378 1.49062C22.33 1.47655 22.2268 1.44374 22.1331 1.39687C21.6503 1.18593 21.13 1.07812 20.6003 1.08749C20.1456 1.08749 19.7847 1.15781 19.5362 1.31249C19.2878 1.46249 19.1612 1.69686 19.1612 2.0203C19.1612 2.2453 19.2409 2.43749 19.4003 2.58748C19.5597 2.73748 19.855 2.89217 20.2768 3.02811L21.4112 3.38436C21.9831 3.56717 22.4003 3.82498 22.6487 4.1531C22.8971 4.48122 23.0143 4.85622 23.0143 5.26872C23.0143 5.61091 22.944 5.92497 22.8081 6.19684C22.6628 6.46871 22.4706 6.70778 22.2268 6.89996C21.9784 7.10152 21.6831 7.24215 21.3409 7.34527C20.9706 7.45777 20.5956 7.51402 20.1878 7.51402ZM21.6972 11.3906C19.0722 13.3312 15.2566 14.3577 11.9753 14.3577C7.37692 14.3577 3.2332 12.6562 0.10665 9.82963C-0.141786 9.60463 0.0832136 9.30464 0.378525 9.47807C3.76288 11.4421 7.93942 12.6327 12.2566 12.6327C15.1722 12.6327 18.369 12.0281 21.3175 10.7812C21.7534 10.5843 22.1284 11.0718 21.6972 11.3906ZM22.7893 10.1484C22.4518 9.71713 20.5675 9.94213 19.7144 10.0453C19.4612 10.0781 19.419 9.85307 19.6534 9.68432C21.1534 8.62964 23.619 8.93432 23.9096 9.28588C24.1956 9.64682 23.83 12.1124 22.4237 13.2937C22.2081 13.4765 22.0018 13.3827 22.0956 13.1437C22.4143 12.3515 23.1268 10.5703 22.7893 10.1484Z" fill="#0061F0"/>
</svg>
