<svg width="24" height="24" viewBox="0 0 24 24" fill="none" xmlns="http://www.w3.org/2000/svg">
<path d="M0.870299 17.605C0.622086 18.0098 0.343324 18.4795 0.106567 18.8537C-0.105349 19.2118 0.00841571 19.6737 0.362417 19.8924L5.32668 22.9473C5.50093 23.0549 5.7111 23.088 5.90998 23.0392C6.10887 22.9904 6.27982 22.8637 6.38444 22.6877C6.58302 22.3554 6.83887 21.9239 7.11763 21.4619C9.08424 18.216 11.0623 18.6131 14.6289 20.3163L19.5512 22.6571C19.7376 22.7458 19.952 22.7553 20.1455 22.6834C20.3391 22.6114 20.4952 22.4642 20.5784 22.2752L22.9422 16.9291C23.1092 16.5473 22.9392 16.1021 22.5603 15.9286C21.5216 15.4398 19.4557 14.4661 17.596 13.5687C10.9057 10.319 5.21975 10.529 0.870299 17.605Z" fill="url(#paint0_linear_324_11)"/>
<path d="M23.1298 5.47259C23.378 5.06781 23.6568 4.59812 23.8936 4.22389C24.1055 3.86578 23.9917 3.40393 23.6377 3.18522L18.6735 0.130286C18.4978 0.011962 18.2809 -0.0280919 18.0745 0.0196941C17.8682 0.0674801 17.6909 0.198814 17.5851 0.382318C17.3866 0.714542 17.1307 1.14605 16.852 1.60811C14.8853 4.85397 12.9073 4.45683 9.34065 2.75371L4.43367 0.424323C4.24724 0.335591 4.03284 0.326116 3.83932 0.398058C3.64579 0.47 3.48964 0.617229 3.40645 0.806189L1.0427 6.15231C0.875694 6.53414 1.04562 6.97935 1.42456 7.1528C2.46324 7.64159 4.52913 8.61535 6.38882 9.51274C13.0944 12.7586 18.7804 12.5409 23.1298 5.47259Z" fill="url(#paint1_linear_324_11)"/>
<defs>
<linearGradient id="paint0_linear_324_11" x1="21.2968" y1="-133.327" x2="577.126" y2="1141.24" gradientUnits="userSpaceOnUse">
<stop offset="0.18" stop-color="#206BFF"/>
<stop offset="1" stop-color="#2684FF"/>
</linearGradient>
<linearGradient id="paint1_linear_324_11" x1="22.2894" y1="-145.064" x2="579.093" y2="1130.91" gradientUnits="userSpaceOnUse">
<stop offset="0.18" stop-color="#206BFF"/>
<stop offset="1" stop-color="#2684FF"/>
</linearGradient>
</defs>
</svg>
