<svg width="708" height="798" viewBox="0 0 708 798" fill="none" xmlns="http://www.w3.org/2000/svg">
<path d="M242.428 555.783C200.059 515.906 175.136 461.076 175.136 398.768C175.136 336.461 200.059 281.63 239.936 241.753C274.828 206.861 274.828 152.03 239.936 117.138C205.043 82.2459 150.213 82.2459 115.321 117.138C45.5361 189.415 0.674744 289.107 0.674744 398.768C0.674744 508.429 45.5361 608.121 117.813 680.398C152.705 715.29 207.536 715.29 242.428 680.398C274.828 645.506 274.828 590.675 242.428 555.783Z" fill="#0061F0"/>
<path d="M242.428 241.753C282.305 199.384 337.135 174.461 399.443 174.461C461.75 174.461 516.581 199.384 556.458 239.261C591.35 274.153 646.18 274.153 681.073 239.261C715.965 204.369 715.965 149.538 681.073 114.646C608.796 44.8614 509.104 0 399.443 0C289.782 0 190.09 44.8614 117.813 117.138C82.9206 152.03 82.9206 206.861 117.813 241.753C152.705 274.153 207.536 274.153 242.428 241.753Z" fill="#0061F0"/>
<path d="M556.458 555.783C516.581 598.152 461.75 623.075 399.443 623.075C337.135 623.075 282.305 598.152 242.428 558.275C207.536 523.383 152.705 523.383 117.813 558.275C82.9206 593.167 82.9206 647.998 117.813 682.89C190.09 752.675 289.782 797.536 399.443 797.536C509.104 797.536 608.796 752.675 681.073 680.398C715.965 645.506 715.965 590.675 681.073 555.783C646.18 523.383 591.35 523.383 556.458 555.783Z" fill="#0061F0"/>
<path d="M180.12 266.676C228.296 266.676 267.351 227.622 267.351 179.446C267.351 131.27 228.296 92.2151 180.12 92.2151C131.944 92.2151 92.8898 131.27 92.8898 179.446C92.8898 227.622 131.944 266.676 180.12 266.676Z" fill="#0061F0"/>
<path d="M180.12 705.321C228.296 705.321 267.351 666.267 267.351 618.09C267.351 569.914 228.296 530.86 180.12 530.86C131.944 530.86 92.8898 569.914 92.8898 618.09C92.8898 666.267 131.944 705.321 180.12 705.321Z" fill="#0061F0"/>
</svg>
