<svg width="24" height="24" viewBox="0 0 24 24" fill="none" xmlns="http://www.w3.org/2000/svg">
<g clip-path="url(#clip0_215_288)">
<path d="M23.7656 9.89818C23.699 9.8424 23.0976 9.38537 21.8067 9.38537C21.4672 9.38733 21.1284 9.41711 20.7937 9.47443C20.549 7.76818 19.1353 6.94318 19.0795 6.8963L18.7345 6.69568L18.5119 7.01912C18.2311 7.45822 18.0243 7.9404 17.8997 8.44646C17.6653 9.41677 17.8106 10.3308 18.3004 11.1113C17.7103 11.446 16.7536 11.5238 16.5529 11.5332H0.747168C0.648673 11.5331 0.551138 11.5525 0.46018 11.5903C0.369223 11.6281 0.286641 11.6835 0.217191 11.7534C0.14774 11.8232 0.0927932 11.9061 0.0555147 11.9973C0.0182362 12.0884 -0.000637463 12.1861 -1.91392e-05 12.2846C-0.0212516 13.6722 0.213122 15.0519 0.691387 16.3547C1.23701 17.7821 2.04936 18.8438 3.09373 19.4879C4.27592 20.2126 6.20154 20.6251 8.37186 20.6251C9.35375 20.6251 10.3336 20.5355 11.2992 20.3574C12.6454 20.1133 13.9402 19.642 15.1284 18.9638C16.1066 18.3955 16.9862 17.6725 17.7333 16.823C18.9909 15.4069 19.7367 13.823 20.2823 12.4168H20.505C21.8742 12.4168 22.7203 11.8702 23.1876 11.4019C23.4978 11.1079 23.7409 10.7504 23.9001 10.3538L24.0005 10.0641L23.7656 9.89818Z" fill="#0061F0"/>
<path d="M2.21667 11.0799H4.33121C4.38093 11.0799 4.42863 11.0601 4.46379 11.025C4.49895 10.9898 4.51871 10.9421 4.51871 10.8924V8.99487C4.51871 8.94514 4.49895 8.89745 4.46379 8.86229C4.42863 8.82713 4.38093 8.80737 4.33121 8.80737H2.21667C2.16695 8.80737 2.11926 8.82713 2.08409 8.86229C2.04893 8.89745 2.02917 8.94514 2.02917 8.99487V10.8905C2.03103 10.9396 2.05138 10.9863 2.08615 11.021C2.12092 11.0558 2.16754 11.0761 2.21667 11.078" fill="#0061F0"/>
<path d="M5.13281 11.0799H7.24781C7.29754 11.0799 7.34523 11.0601 7.38039 11.025C7.41556 10.9898 7.43531 10.9421 7.43531 10.8924V8.99487C7.43531 8.94514 7.41556 8.89745 7.38039 8.86229C7.34523 8.82713 7.29754 8.80737 7.24781 8.80737H5.13281C5.08308 8.80737 5.03539 8.82713 5.00023 8.86229C4.96507 8.89745 4.94531 8.94514 4.94531 8.99487V10.8905C4.94717 10.9396 4.96752 10.9863 5.00229 11.021C5.03706 11.0558 5.08368 11.0761 5.13281 11.078" fill="#0061F0"/>
<path d="M8.10472 11.0799H10.2188C10.2685 11.0799 10.3162 11.0601 10.3514 11.025C10.3865 10.9898 10.4063 10.9421 10.4063 10.8924V8.99487C10.4063 8.94514 10.3865 8.89745 10.3514 8.86229C10.3162 8.82713 10.2685 8.80737 10.2188 8.80737H8.10472C8.05499 8.80737 8.0073 8.82713 7.97214 8.86229C7.93698 8.89745 7.91722 8.94514 7.91722 8.99487V10.8905C7.91637 10.9154 7.92064 10.9401 7.92976 10.9632C7.93888 10.9864 7.95266 11.0074 7.97025 11.025C7.98783 11.0426 8.00884 11.0563 8.03197 11.0655C8.05511 11.0746 8.07987 11.0788 8.10472 11.078" fill="#0061F0"/>
<path d="M11.0325 11.0799H13.1475C13.1972 11.0799 13.2449 11.0601 13.2801 11.025C13.3152 10.9898 13.335 10.9421 13.335 10.8924V8.99487C13.335 8.94514 13.3152 8.89745 13.2801 8.86229C13.2449 8.82713 13.1972 8.80737 13.1475 8.80737H11.0325C10.9827 8.80737 10.9351 8.82713 10.8999 8.86229C10.8647 8.89745 10.845 8.94514 10.845 8.99487V10.8905C10.845 10.9402 10.8647 10.9879 10.8999 11.0231C10.9351 11.0582 10.9827 11.078 11.0325 11.078" fill="#0061F0"/>
<path d="M5.13281 8.37052H7.24781C7.29695 8.36867 7.34357 8.34832 7.37834 8.31355C7.41311 8.27878 7.43346 8.23216 7.43531 8.18302V6.28552C7.43531 6.23579 7.41556 6.1881 7.38039 6.15294C7.34523 6.11778 7.29754 6.09802 7.24781 6.09802H5.13281C5.08308 6.09802 5.03539 6.11778 5.00023 6.15294C4.96507 6.1881 4.94531 6.23579 4.94531 6.28552V8.18115C4.94898 8.22966 4.96992 8.27524 5.00432 8.30964C5.03872 8.34404 5.0843 8.36498 5.13281 8.36865" fill="#0061F0"/>
<path d="M8.10474 8.37052H10.2188C10.2679 8.36867 10.3146 8.34832 10.3493 8.31355C10.3841 8.27878 10.4044 8.23216 10.4063 8.18302V6.28552C10.4063 6.23579 10.3865 6.1881 10.3514 6.15294C10.3162 6.11778 10.2685 6.09802 10.2188 6.09802H8.10474C8.05501 6.09802 8.00732 6.11778 7.97215 6.15294C7.93699 6.1881 7.91724 6.23579 7.91724 6.28552V8.18115C7.91724 8.23088 7.93699 8.27857 7.97215 8.31373C8.00732 8.34889 8.05501 8.36865 8.10474 8.36865" fill="#0061F0"/>
<path d="M11.0325 8.37052H13.1475C13.1966 8.36867 13.2432 8.34832 13.278 8.31355C13.3128 8.27878 13.3331 8.23216 13.335 8.18302V6.28552C13.3331 6.23639 13.3128 6.18977 13.278 6.155C13.2432 6.12023 13.1966 6.09988 13.1475 6.09802H11.0325C10.9827 6.09802 10.9351 6.11778 10.8999 6.15294C10.8647 6.1881 10.845 6.23579 10.845 6.28552V8.18115C10.8468 8.23028 10.8672 8.2769 10.9019 8.31167C10.9367 8.34644 10.9833 8.36679 11.0325 8.36865" fill="#0061F0"/>
<path d="M11.0325 5.64984H13.1475C13.1972 5.64984 13.2449 5.63009 13.2801 5.59493C13.3152 5.55976 13.335 5.51207 13.335 5.46234V3.5625C13.3331 3.51336 13.3128 3.46674 13.278 3.43198C13.2432 3.39721 13.1966 3.37686 13.1475 3.375H11.0325C10.9827 3.375 10.9351 3.39475 10.8999 3.42992C10.8647 3.46508 10.845 3.51277 10.845 3.5625V5.45813C10.8469 5.50722 10.8673 5.55378 10.9021 5.58853C10.9368 5.62328 10.9834 5.64366 11.0325 5.64563" fill="#0061F0"/>
<path d="M13.9819 11.0799H16.0969C16.1467 11.0799 16.1944 11.0601 16.2295 11.025C16.2647 10.9898 16.2844 10.9421 16.2844 10.8924V8.99487C16.2844 8.94514 16.2647 8.89745 16.2295 8.86229C16.1944 8.82713 16.1467 8.80737 16.0969 8.80737H13.9819C13.9322 8.80737 13.8845 8.82713 13.8494 8.86229C13.8142 8.89745 13.7944 8.94514 13.7944 8.99487V10.8905C13.7963 10.9396 13.8166 10.9863 13.8514 11.021C13.8862 11.0558 13.9328 11.0761 13.9819 11.078" fill="#0061F0"/>
</g>
<defs>
<clipPath id="clip0_215_288">
<rect width="24" height="24" fill="white"/>
</clipPath>
</defs>
</svg>
