<svg width="24" height="24" viewBox="0 0 24 24" fill="none" xmlns="http://www.w3.org/2000/svg">
<g clip-path="url(#clip0_306_75)">
<path d="M11.9985 24C11.6775 24 11.3575 23.916 11.0765 23.753L8.14046 22.016C7.70246 21.771 7.91647 21.684 8.06047 21.633C8.64547 21.43 8.76348 21.383 9.38846 21.029C9.45345 20.992 9.53947 21.006 9.60645 21.046L11.8625 22.385C11.9445 22.43 12.0594 22.43 12.1344 22.385L20.9294 17.309C21.0114 17.262 21.0634 17.168 21.0634 17.071V6.92097C21.0634 6.82197 21.0104 6.72897 20.9264 6.67898L12.1354 1.60699C12.0544 1.56 11.9464 1.56 11.8644 1.60699L3.07543 6.67999C2.99042 6.729 2.93642 6.825 2.93642 6.921V17.071C2.93642 17.168 2.99042 17.26 3.07543 17.306L5.48443 18.698C6.79142 19.352 7.59242 18.582 7.59242 17.808V7.78701C7.59242 7.64501 7.70642 7.53401 7.84843 7.53401H8.96342C9.10243 7.53401 9.21842 7.64601 9.21842 7.78701V17.808C9.21842 19.553 8.26843 20.553 6.61442 20.553C6.10641 20.553 5.70542 20.553 4.58841 20.002L2.28041 18.675C1.71041 18.346 1.3584 17.73 1.3584 17.071V6.92102C1.3584 6.26203 1.71139 5.64602 2.28041 5.31801L11.0754 0.236013C11.6324 -0.0789865 12.3714 -0.0789865 12.9234 0.236013L21.7174 5.31801C22.2874 5.64701 22.6414 6.26201 22.6414 6.92102V17.071C22.6414 17.73 22.2874 18.344 21.7174 18.675L12.9234 23.753C12.6434 23.916 12.3244 24 11.9984 24L11.9985 24ZM19.0995 13.993C19.0995 12.093 17.8155 11.587 15.1125 11.23C12.3815 10.869 12.1035 10.682 12.1035 10.043C12.1035 9.51501 12.3385 8.81001 14.3615 8.81001C16.1685 8.81001 16.8345 9.19901 17.1084 10.417C17.1324 10.532 17.2374 10.616 17.3555 10.616H18.4965C18.5675 10.616 18.6345 10.585 18.6825 10.535C18.7305 10.481 18.7565 10.412 18.7495 10.339C18.5725 8.241 17.1785 7.263 14.3615 7.263C11.8535 7.263 10.3575 8.32099 10.3575 10.096C10.3575 12.021 11.8455 12.553 14.2525 12.791C17.1325 13.073 17.3555 13.494 17.3555 14.06C17.3555 15.043 16.5665 15.462 14.7135 15.462C12.3865 15.462 11.8745 14.878 11.7025 13.72C11.6825 13.596 11.5765 13.505 11.4495 13.505H10.3125C10.1715 13.505 10.0585 13.617 10.0585 13.758C10.0585 15.24 10.8645 17.006 14.7135 17.006C17.5015 17.007 19.0995 15.91 19.0995 13.993L19.0995 13.993Z" fill="#0061F0"/>
</g>
<defs>
<clipPath id="clip0_306_75">
<rect width="24" height="24" fill="white"/>
</clipPath>
</defs>
</svg>
