<svg width="24" height="24" viewBox="0 0 24 24" fill="none" xmlns="http://www.w3.org/2000/svg">
<path d="M3.89042 15.673L6.25543 0.461014C6.29635 0.198702 6.52067 0.00037384 6.79128 0.00037384C6.99793 0.00037384 7.17758 0.116014 7.26901 0.286124L7.27044 0.289007L9.81343 5.06001L3.89042 15.673ZM20.6854 19.364L18.4334 5.36498C18.3886 5.10644 18.166 4.91233 17.898 4.91233C17.7488 4.91233 17.6136 4.97255 17.5154 5.07002L17.5154 5.07L3.31543 19.364L11.1724 23.792C11.4008 23.9226 11.6744 23.9996 11.9659 23.9996C12.2575 23.9996 12.5311 23.9226 12.7674 23.7878L12.7594 23.792L20.6854 19.364ZM14.3004 7.14799L12.4804 3.666C12.3879 3.49209 12.2077 3.37573 12.0004 3.37573C11.7931 3.37573 11.613 3.49209 11.5219 3.66309L11.5204 3.66602L3.53042 17.984L14.3004 7.14799Z" fill="#0061F0"/>
</svg>
