<svg width="24" height="24" viewBox="0 0 24 24" fill="none" xmlns="http://www.w3.org/2000/svg">
<g clip-path="url(#clip0_306_81)">
<path d="M23.5478 10.9311L13.0689 0.452677C12.4657 -0.150933 11.487 -0.150933 10.883 0.452677L8.44825 2.88727L10.2804 4.71938C10.5741 4.57885 10.9029 4.5 11.2503 4.5C12.4929 4.5 13.5003 5.50735 13.5003 6.75C13.5003 7.09735 13.4214 7.42627 13.2809 7.71999L16.2803 10.7194C16.574 10.5788 16.9029 10.5 17.2503 10.5C18.4929 10.5 19.5003 11.5073 19.5003 12.75C19.5003 13.9927 18.4929 15 17.2503 15C16.0076 15 15.0003 13.9927 15.0003 12.75C15.0003 12.4027 15.0791 12.0737 15.2197 11.78L12.2203 8.78063C12.149 8.81475 12.0755 8.84489 12.0003 8.87147V15.1285C12.8741 15.4375 13.5003 16.2704 13.5003 17.25C13.5003 18.4927 12.493 19.5 11.2503 19.5C10.0077 19.5 9.00034 18.4927 9.00034 17.25C9.00034 16.2704 9.62654 15.4375 10.5003 15.1285V8.87147C9.62654 8.56257 9.00034 7.7296 9.00034 6.75C9.00034 6.40266 9.07918 6.07379 9.21972 5.78007L7.38761 3.94796L0.452637 10.8826C-0.150879 11.4867 -0.150879 12.4654 0.452637 13.069L10.932 23.5474C11.5352 24.1509 12.5137 24.1509 13.118 23.5474L23.5478 13.1176C24.1515 12.5138 24.1515 11.5346 23.5478 10.9311Z" fill="#0061F0"/>
</g>
<defs>
<clipPath id="clip0_306_81">
<rect width="24" height="24" fill="white"/>
</clipPath>
</defs>
</svg>
