<svg width="24" height="24" viewBox="0 0 24 24" fill="none" xmlns="http://www.w3.org/2000/svg">
<g clip-path="url(#clip0_306_84)">
<path d="M14.0514 2.751L18.9864 5.601C19.8024 4.74199 21.1594 4.70801 22.0184 5.52401C22.1664 5.664 22.2924 5.82502 22.3954 6.00101C22.9844 7.029 22.6274 8.34 21.5994 8.92901C21.4254 9.02902 21.2384 9.10402 21.0414 9.15202V14.851C22.1874 15.124 22.8954 16.274 22.6214 17.42C22.5734 17.624 22.4943 17.82 22.3893 18.001C21.7973 19.024 20.4884 19.375 19.4624 18.783C19.2663 18.67 19.0874 18.524 18.9363 18.354L14.0313 21.186C14.4033 22.31 13.7933 23.521 12.6704 23.892C12.4533 23.963 12.2283 24 12.0003 24C10.8194 24.001 9.86134 23.045 9.86034 21.864C9.86034 21.659 9.88933 21.454 9.94834 21.255L5.01234 18.408C4.19634 19.262 2.84134 19.295 1.98634 18.478C1.13235 17.662 1.10034 16.307 1.91634 15.452C2.19934 15.155 2.56234 14.946 2.96034 14.849L2.96134 9.15002C1.81134 8.87402 1.10334 7.71703 1.38034 6.56602C1.42734 6.36802 1.50334 6.17702 1.60434 6.00002C2.19634 4.97602 3.50634 4.62602 4.53133 5.21803C4.70833 5.31902 4.87033 5.44603 5.01133 5.59502L9.94933 2.74502C9.61333 1.61203 10.2603 0.423024 11.3903 0.0880315C11.5873 0.0290393 11.7943 2.36851e-05 12.0003 2.36851e-05C13.1813 -0.000984127 14.1393 0.954024 14.1404 2.13403C14.1414 2.34302 14.1104 2.55204 14.0514 2.75102L14.0514 2.751ZM13.5364 3.62801C13.5174 3.64901 13.4994 3.66701 13.4784 3.68602L19.9394 14.876C19.9654 14.867 19.9954 14.86 20.0214 14.853V9.14602C18.8764 8.86301 18.1794 7.70402 18.4634 6.55802C18.4694 6.53402 18.4754 6.50902 18.4824 6.48602L13.5364 3.62801ZM10.5214 3.687L10.4614 3.627L5.5154 6.47899C5.8424 7.614 5.1884 8.79698 4.0544 9.12398C4.02841 9.13198 4.0034 9.13798 3.97839 9.14498V14.853L4.06239 14.876L10.5234 3.68597L10.5214 3.687ZM12.5974 4.194C12.2074 4.30601 11.7944 4.30601 11.4054 4.194L4.94537 15.383C5.23937 15.666 5.44738 16.028 5.54537 16.424H18.4564C18.5534 16.026 18.7634 15.663 19.0594 15.38L12.5974 4.194ZM13.5834 20.421L18.4964 17.583C18.4814 17.536 18.4694 17.489 18.4584 17.441H5.54237L5.52137 17.524L10.4604 20.376C10.8484 19.972 11.3944 19.723 12.0004 19.723C12.6274 19.723 13.1904 19.992 13.5834 20.421V20.421Z" fill="#0061F0"/>
</g>
<defs>
<clipPath id="clip0_306_84">
<rect width="24" height="24" fill="white"/>
</clipPath>
</defs>
</svg>
