<svg width="24" height="24" viewBox="0 0 24 24" fill="none" xmlns="http://www.w3.org/2000/svg">
<g clip-path="url(#clip0_306_96)">
<path d="M22.2513 11.82C22.2487 10.3812 21.2717 9.17137 19.9451 8.81498L19.9233 8.80999L22.9114 0H8.10436L11.1004 8.838C9.79423 9.2276 8.85799 10.4172 8.85635 11.8258V11.826C8.85635 12.869 9.37636 13.793 10.1693 14.362C9.83801 14.826 9.4818 15.2329 9.08958 15.6021L9.08534 15.606C8.36852 16.2897 7.52273 16.8458 6.58929 17.2332L6.53534 17.253C5.70134 16.69 5.34033 15.697 5.66634 14.807C6.94416 14.4011 7.85381 13.2253 7.85381 11.837C7.85381 10.1238 6.46854 8.73412 4.75702 8.72702H4.75634C3.03799 8.7293 1.64562 10.1217 1.64334 11.8398V11.84C1.64334 12.688 1.99034 13.466 2.54634 14.022C2.49834 14.119 2.44934 14.217 2.40035 14.321C1.93535 15.28 1.40735 16.364 1.20534 17.58C0.802336 20.012 1.46234 21.964 3.05435 23.069C3.87129 23.6513 4.88979 24 5.98973 24C5.99311 24 5.99651 24 5.99988 24H5.99937C7.82637 24 9.68137 23.083 11.4744 22.193C12.7534 21.561 14.0734 20.901 15.3724 20.581C15.8524 20.463 16.3524 20.394 16.8804 20.317C17.9504 20.164 19.0554 20.005 20.0484 19.427C21.1772 18.7715 21.9835 17.6667 22.2261 16.3637L22.2304 16.336C22.4044 15.342 22.2304 14.342 21.7864 13.466C22.0844 12.986 22.2514 12.424 22.2514 11.82L22.2513 11.82ZM20.8964 11.82C20.8964 12.785 20.1114 13.57 19.1464 13.57C18.1803 13.5672 17.3982 12.7834 17.3982 11.817C17.3982 11.2624 17.6558 10.7679 18.0578 10.4467L18.0614 10.444L18.0684 10.437C18.1244 10.395 18.1864 10.353 18.2484 10.312C18.2484 10.312 18.2564 10.312 18.2564 10.305C18.2844 10.291 18.3114 10.27 18.3394 10.255C18.3464 10.255 18.3533 10.249 18.3604 10.249C18.3884 10.235 18.4234 10.221 18.4574 10.207C18.4924 10.193 18.5274 10.18 18.5554 10.166C18.5624 10.166 18.5684 10.159 18.5753 10.159C18.6034 10.152 18.6313 10.138 18.6593 10.131C18.6664 10.131 18.6793 10.124 18.6874 10.124C18.7214 10.117 18.7493 10.11 18.7844 10.104H18.7914L18.8954 10.082C18.9024 10.082 18.9154 10.082 18.9234 10.075C18.9514 10.075 18.9784 10.068 19.0064 10.068H19.0414C19.0763 10.068 19.1114 10.061 19.1523 10.061H19.2424C19.2704 10.061 19.2923 10.061 19.3193 10.068H19.3333C19.3883 10.075 19.4443 10.082 19.5003 10.096C20.3029 10.2724 20.895 10.9769 20.8963 11.8198L20.8964 11.82ZM10.0433 1.39001H20.9734L18.4643 8.79C18.3604 8.80999 18.2563 8.84501 18.1523 8.88L15.5123 3.495L12.8644 8.84501C12.7604 8.811 12.6484 8.79 12.5374 8.769L10.0433 1.39001ZM15.0113 11.215C14.8757 10.5501 14.542 9.97852 14.0755 9.54898L14.0733 9.54701L15.5113 6.64301L16.9633 9.61001C16.5333 10.04 16.2203 10.59 16.0953 11.215H15.0113ZM11.5304 10.117C11.5644 10.11 11.5924 10.103 11.6274 10.097H11.6474C11.6764 10.089 11.7034 10.089 11.7314 10.082H11.7594C11.7874 10.082 11.8084 10.075 11.8354 10.075H12.1064C12.1344 10.075 12.1554 10.082 12.1764 10.082C12.1904 10.082 12.1964 10.082 12.2114 10.089C12.2384 10.096 12.2594 10.096 12.2874 10.103C12.2944 10.103 12.3014 10.103 12.3154 10.11L12.4124 10.13H12.4194C12.4474 10.138 12.4754 10.145 12.5024 10.159C12.5094 10.159 12.5164 10.166 12.5304 10.166C12.5514 10.173 12.5794 10.18 12.6004 10.193C12.6074 10.193 12.6144 10.2 12.6204 10.2C12.6484 10.214 12.6764 10.221 12.7044 10.235H12.7114C12.7458 10.2482 12.7755 10.2647 12.8024 10.2847L12.8014 10.284H12.8084C12.8364 10.298 12.8644 10.318 12.8924 10.332C12.8994 10.332 12.8994 10.339 12.9054 10.339C12.9334 10.353 12.9554 10.374 12.9824 10.388L12.9894 10.395C13.0724 10.457 13.1494 10.527 13.2254 10.596L13.2324 10.6031C13.5296 10.9156 13.7124 11.3394 13.7124 11.8059C13.7124 11.808 13.7124 11.8102 13.7124 11.8124V11.8121C13.6796 12.7539 12.9082 13.5049 11.9614 13.5049C11.0146 13.5049 10.2432 12.7539 10.2105 11.8151L10.2104 11.8121C10.2104 11.8106 10.2104 11.8089 10.2104 11.8072C10.2104 10.995 10.7663 10.3126 11.5183 10.1197L11.5304 10.1171L11.5304 10.117ZM4.69235 10.068C5.65835 10.068 6.44334 10.854 6.44334 11.819C6.44334 12.784 5.65835 13.57 4.69334 13.57C3.72832 13.57 2.94134 12.785 2.94134 11.82C2.94134 10.855 3.72734 10.068 4.69233 10.068L4.69235 10.068ZM20.8553 16.093C20.6876 17.0129 20.1293 17.7765 19.3622 18.2181L19.3474 18.226C18.5894 18.664 17.6583 18.803 16.6784 18.942C16.0251 19.0261 15.4683 19.1281 14.9214 19.2561L15.0384 19.233C13.5934 19.588 12.2044 20.283 10.8564 20.95C9.13237 21.804 7.50637 22.61 5.99937 22.61C5.99264 22.6101 5.98467 22.6101 5.9767 22.6101C5.17631 22.6101 4.43616 22.3521 3.83489 21.9148L3.84537 21.922C2.31637 20.866 2.39236 18.886 2.57337 17.802C2.74036 16.787 3.20536 15.836 3.65037 14.925C3.67837 14.87 3.69937 14.821 3.72736 14.765C3.87935 14.821 4.03936 14.863 4.20635 14.891C3.94235 16.364 4.69235 17.885 6.15234 18.636L6.41634 18.775L6.70034 18.671C7.91634 18.24 9.04233 17.538 10.0363 16.6C10.5772 16.0947 11.0537 15.5321 11.4597 14.9187L11.4813 14.884C11.6413 14.911 11.8013 14.918 11.9613 14.918C13.399 14.9146 14.6077 13.9383 14.9643 12.6128L14.9693 12.591H16.1363C16.4955 13.9403 17.7062 14.918 19.1454 14.918C19.1457 14.918 19.146 14.918 19.1464 14.918H19.1463C19.7223 14.918 20.2563 14.758 20.7163 14.488C20.8963 15.008 20.9523 15.551 20.8553 16.093Z" fill="#0061F0"/>
</g>
<defs>
<clipPath id="clip0_306_96">
<rect width="24" height="24" fill="white"/>
</clipPath>
</defs>
</svg>
