<svg width="24" height="24" viewBox="0 0 24 24" fill="none" xmlns="http://www.w3.org/2000/svg">
<g clip-path="url(#clip0_306_99)">
<path d="M1.53498 5.87403C-0.58801 8.92402 -0.325017 12.891 1.29798 16.13C1.33499 16.209 1.37598 16.284 1.41599 16.359C1.43898 16.411 1.465 16.459 1.49298 16.508C1.50599 16.536 1.52399 16.565 1.53998 16.591C1.56597 16.643 1.59398 16.693 1.62098 16.743L1.77798 17.008C1.80698 17.057 1.83498 17.105 1.86798 17.154C1.92299 17.248 1.98798 17.341 2.04498 17.435C2.07098 17.474 2.09498 17.513 2.12399 17.552C2.23518 17.7261 2.33727 17.8708 2.44506 18.011L2.434 17.996C2.512 18.103 2.59 18.207 2.674 18.311C2.701 18.349 2.731 18.387 2.75901 18.425L2.98 18.694C3.007 18.725 3.034 18.761 3.06299 18.793C3.16098 18.911 3.265 19.026 3.36899 19.142C3.36899 19.144 3.37199 19.146 3.37398 19.149C3.50324 19.3116 3.6422 19.4556 3.79375 19.5855L3.79799 19.589C3.87798 19.671 3.958 19.753 4.04298 19.833L4.14398 19.93C4.25498 20.034 4.36598 20.138 4.48298 20.238C4.48497 20.238 4.48598 20.24 4.48797 20.241L4.54497 20.291C4.64697 20.38 4.74998 20.469 4.85498 20.551L4.97997 20.656C5.06498 20.724 5.15296 20.789 5.23996 20.856L5.37597 20.96C5.46897 21.03 5.56797 21.099 5.66296 21.167C5.69795 21.192 5.73297 21.217 5.76897 21.24L5.79796 21.263L6.07895 21.448L6.19895 21.528C6.34595 21.622 6.49194 21.711 6.63695 21.799C6.67895 21.82 6.72095 21.843 6.75995 21.867C6.86795 21.9289 6.97996 21.9919 7.08894 22.05C7.14894 22.084 7.21094 22.113 7.27295 22.144C7.34795 22.186 7.42595 22.227 7.50594 22.269C7.52755 22.2756 7.54612 22.2834 7.56369 22.2928L7.56196 22.292C7.59496 22.307 7.62597 22.323 7.65796 22.339C7.77796 22.399 7.90295 22.456 8.03296 22.513C8.05696 22.523 8.08295 22.533 8.10897 22.547C8.25297 22.61 8.39697 22.67 8.54596 22.729C8.57997 22.739 8.61597 22.756 8.65096 22.769C8.78596 22.82 8.92497 22.872 9.06196 22.921L9.11195 22.939C9.26495 22.991 9.41596 23.041 9.57095 23.089C9.60695 23.099 9.64396 23.112 9.68195 23.122C9.84095 23.17 9.99496 23.227 10.1549 23.258C20.4149 25.128 23.3969 17.089 23.3969 17.089C20.8919 20.351 16.447 21.211 12.2369 20.254C12.0809 20.218 11.9249 20.168 11.7679 20.122C11.4817 20.0394 11.293 19.9777 11.1062 19.9119L11.2009 19.941L11.1389 19.917C11.0029 19.8709 10.8719 19.8199 10.7389 19.7689C10.7137 19.7578 10.6773 19.7439 10.6403 19.7313L10.6289 19.728C10.4819 19.669 10.3389 19.608 10.1969 19.545C10.1659 19.5349 10.1399 19.521 10.1089 19.509C9.84653 19.3926 9.72796 19.3357 9.60995 19.2779L9.74791 19.339C9.7109 19.323 9.6779 19.306 9.6419 19.287C9.54789 19.243 9.45391 19.1929 9.36189 19.1449C9.27639 19.1042 9.2151 19.0722 9.15477 19.0387L9.17488 19.0489C9.06189 18.9889 8.94887 18.924 8.83588 18.8619C8.80187 18.8379 8.76287 18.8179 8.72387 18.7959C8.50745 18.6691 8.36451 18.5802 8.22311 18.4891L8.28587 18.5269C8.2378 18.497 8.19934 18.471 8.1618 18.4437L8.16787 18.4479C8.03873 18.3683 7.93698 18.3004 7.83751 18.2295L7.85587 18.2419C7.82087 18.2189 7.78886 18.1939 7.75286 18.1689C7.62501 18.0806 7.52926 18.0109 7.43491 17.9395L7.45886 17.9569C7.41686 17.9229 7.37186 17.8909 7.32686 17.8569C7.23885 17.7879 7.14986 17.7219 7.06185 17.6489L6.94384 17.5549C6.81367 17.4497 6.70497 17.3578 6.59816 17.2638L6.60983 17.2739C6.59877 17.263 6.58668 17.2532 6.57374 17.2444L6.57283 17.2439L6.22583 16.9279L6.12583 16.8338C6.04382 16.7509 5.95982 16.6708 5.87582 16.5889L5.77881 16.4888C5.67519 16.3857 5.57441 16.2805 5.47616 16.1729L5.46981 16.1659L5.45481 16.1498C5.3488 16.0339 5.24582 15.9158 5.1418 15.7958C5.1148 15.7648 5.0898 15.7318 5.06181 15.6988L4.8358 15.4218C4.75719 15.3234 4.64566 15.1776 4.53599 15.0303L4.4958 14.9738C2.16079 11.7859 1.3158 7.38584 3.1848 3.77684L1.53498 5.87403ZM8.12198 3.30502C6.58298 5.51403 6.66998 8.46802 7.86798 10.804C8.08989 11.2418 8.3148 11.6124 8.56405 11.9644L8.54498 11.936C8.77497 12.266 9.02898 12.656 9.33698 12.922C9.44397 13.044 9.55998 13.162 9.68097 13.281L9.77097 13.371C9.88497 13.481 10.002 13.589 10.121 13.696L10.136 13.709C10.2563 13.8147 10.3911 13.9266 10.5288 14.035L10.55 14.051C10.584 14.074 10.613 14.101 10.646 14.124C10.786 14.232 10.927 14.336 11.073 14.439L11.088 14.448C11.15 14.493 11.216 14.534 11.286 14.578C11.314 14.596 11.346 14.62 11.376 14.638C11.482 14.706 11.586 14.77 11.693 14.835C11.71 14.842 11.725 14.851 11.741 14.858C11.831 14.913 11.929 14.966 12.023 15.015C12.056 15.035 12.088 15.05 12.122 15.069C12.189 15.102 12.255 15.137 12.319 15.171L12.3509 15.185C12.4859 15.251 12.6239 15.313 12.7589 15.375C12.793 15.388 12.8219 15.399 12.8509 15.413C12.9619 15.461 13.0749 15.507 13.1859 15.55C13.2359 15.567 13.2829 15.587 13.3299 15.602C13.4319 15.64 13.5389 15.675 13.6399 15.71L13.7799 15.755C13.9259 15.8 14.0739 15.859 14.2279 15.884C22.1479 17.197 23.9819 11.097 23.9819 11.097C22.3309 13.473 19.1359 14.605 15.7309 13.721C15.5235 13.6681 15.3739 13.6235 15.2262 13.5748L15.283 13.591C15.235 13.578 15.193 13.563 15.1469 13.549C15.043 13.513 14.9359 13.478 14.8349 13.44L14.6909 13.386C14.5789 13.341 14.4649 13.299 14.356 13.251C14.3219 13.236 14.291 13.226 14.2649 13.211C14.125 13.148 13.984 13.086 13.8479 13.019L13.642 12.912L13.523 12.852C13.431 12.804 13.346 12.754 13.258 12.702C13.2333 12.6902 13.213 12.6789 13.1934 12.6665L13.1959 12.668C13.0899 12.602 12.9799 12.538 12.8789 12.47C12.8449 12.451 12.814 12.428 12.7819 12.408L12.5739 12.272C12.4299 12.172 12.2889 12.064 12.1469 11.96C12.1149 11.931 12.0839 11.907 12.0529 11.881C10.5559 10.704 9.37492 9.095 8.81491 7.27299C8.22491 5.37898 8.3549 3.25498 9.37391 1.53099L8.12198 3.30502ZM13.661 1.38403C12.753 2.71603 12.666 4.37004 13.291 5.83903C13.955 7.39903 15.313 8.62404 16.895 9.20403C16.96 9.22904 17.023 9.25004 17.09 9.27404L17.178 9.30103C17.27 9.33003 17.363 9.36404 17.458 9.38504C21.834 10.229 23.018 7.13803 23.337 6.68403C22.295 8.18002 20.548 8.53904 18.405 8.01802C18.1955 7.96554 18.0234 7.91075 17.8557 7.8469L17.889 7.85801C17.6359 7.769 17.4321 7.68326 17.2341 7.5875L17.272 7.604C16.8594 7.40218 16.5054 7.18252 16.1759 6.93225L16.192 6.944C14.272 5.49 13.083 2.714 14.335 0.453003L13.661 1.38403Z" fill="#0061F0"/>
</g>
<defs>
<clipPath id="clip0_306_99">
<rect width="24" height="24" fill="white"/>
</clipPath>
</defs>
</svg>
