<svg width="24" height="24" viewBox="0 0 24 24" fill="none" xmlns="http://www.w3.org/2000/svg">
<g clip-path="url(#clip0_306_102)">
<path d="M12.0434 23.968C12.5224 23.964 12.9964 23.939 13.4694 23.874C14.5494 23.736 15.6124 23.441 16.6154 23.011C18.0244 22.409 19.3134 21.54 20.4084 20.468C21.4114 19.479 22.2504 18.317 22.8484 17.041C23.3574 15.944 23.7174 14.767 23.8684 13.565C24.0174 12.405 24.0034 11.219 23.8234 10.066C23.6744 9.10597 23.4044 8.16997 23.0304 7.27796C22.7904 6.71696 22.5054 6.17696 22.1764 5.66096C21.0084 3.82395 19.3154 2.34697 17.3664 1.35997C16.6734 1.00496 15.9434 0.714969 15.1944 0.490977H15.1894C15.3084 0.553977 15.4294 0.622977 15.5344 0.691977C15.6544 0.765969 15.7734 0.837969 15.8854 0.916977C16.4544 1.30198 16.9794 1.74397 17.4444 2.24698C18.5074 3.39198 19.2414 4.79499 19.6624 6.28798C19.9464 7.26999 20.0964 8.28598 20.1574 9.30498C20.2014 10.048 20.2014 10.796 20.1104 11.534C19.9614 12.804 19.5564 14.044 18.8824 15.13C18.3874 15.933 17.7424 16.649 16.9794 17.214C15.7354 18.142 14.1024 18.696 12.5434 18.328C12.2894 18.267 12.0334 18.182 11.7954 18.07C11.5244 17.946 11.2554 17.793 11.0164 17.621C10.5514 17.31 10.1314 16.936 9.77242 16.515C9.33742 15.995 8.97842 15.404 8.72342 14.768C8.40943 13.962 8.24443 13.096 8.22943 12.228C8.19943 10.955 8.45443 9.67498 9.08342 8.55798C9.50342 7.81398 10.0724 7.16197 10.7464 6.63997C10.9714 6.46196 11.2104 6.30697 11.4504 6.16098L11.4664 6.15397C11.0004 6.04897 10.5064 6.00296 10.0254 6.03397C9.60742 6.06296 9.20242 6.13897 8.79742 6.27296C8.43842 6.39296 8.09342 6.54397 7.77842 6.72296C7.52342 6.87195 7.27042 7.03796 7.04542 7.21796C6.83441 7.39796 6.62542 7.57695 6.43042 7.77296C5.30741 8.92597 4.66241 10.455 4.40842 12.029C4.25842 13.002 4.25842 13.9899 4.31741 14.9799C4.42241 16.3739 4.70842 17.7659 5.26241 19.0409C5.6064 19.8349 6.05542 20.5679 6.61042 21.2139C7.46441 22.2009 8.54441 22.967 9.74242 23.4449C10.4174 23.7159 11.1364 23.9099 11.8554 23.9849C11.9294 23.9999 12.0044 23.9999 12.0644 23.9999L12.0434 23.968ZM9.10939 23.57C8.9454 23.4999 8.7954 23.421 8.65939 23.342C8.5104 23.259 8.35939 23.174 8.2104 23.0829C7.6254 22.721 7.10239 22.2959 6.62141 21.8079C5.52742 20.6699 4.79441 19.241 4.37441 17.7269C4.09042 16.6929 3.93941 15.6249 3.87941 14.5549C3.83542 13.8519 3.85042 13.1619 3.92542 12.4729C4.06042 11.2159 4.42042 9.97194 5.04941 8.89292C5.4984 8.09893 6.11242 7.39491 6.83242 6.83991C7.32641 6.46592 7.88141 6.14991 8.46542 5.93991C9.28942 5.64092 10.1734 5.55092 11.0284 5.66991C11.3584 5.71491 11.6864 5.79092 11.9874 5.89491C12.0164 5.89491 12.0164 5.89491 12.0324 5.92491C12.0474 5.93991 12.0774 5.93991 12.0924 5.95491C12.1374 5.97092 12.1964 5.99991 12.2574 6.02891C12.4964 6.14891 12.7364 6.29991 12.9614 6.44891C13.8604 7.0779 14.5944 7.94691 15.0584 8.95091C15.4784 9.8649 15.6734 10.8849 15.6894 11.8889C15.7034 12.9679 15.5094 14.0459 15.0444 15.0349C14.4894 16.2189 13.5464 17.2229 12.4064 17.8669C12.4964 17.8969 12.5864 17.9119 12.6774 17.9419C12.9024 17.9859 13.1264 18.0159 13.3654 18.0159C14.8334 18.0609 16.2574 17.3569 17.3054 16.3689C17.5004 16.1889 17.6804 15.9939 17.8454 15.7839C18.0704 15.5139 18.2804 15.2449 18.4594 14.9609C18.6984 14.5859 18.8944 14.2109 19.0734 13.8069C19.2994 13.2679 19.4774 12.7129 19.5824 12.1429C19.7784 11.1389 19.7934 10.1209 19.7314 9.11691C19.5964 7.09491 19.0584 5.07191 17.8894 3.39291C17.7094 3.13892 17.5304 2.89892 17.3344 2.67392C17.0054 2.29892 16.6454 1.95493 16.2714 1.63993C15.8514 1.29493 15.3864 0.980938 14.9084 0.72493C14.4154 0.501922 13.8304 0.27793 13.2164 0.126922L12.9164 0.0669223C12.7074 0.0369223 12.4964 0.0229301 12.2824 0.00692228C11.9574 -0.00807772 11.6134 -0.00308553 11.2674 0.0229301C10.5634 0.0679301 9.85539 0.182938 9.15538 0.359938C5.79939 1.22593 2.86337 3.56495 1.30037 6.66793C0.79937 7.65692 0.44537 8.71393 0.23837 9.79993C-0.000622526 11.0429 -0.0316304 12.3229 0.134377 13.5749C0.254377 14.5949 0.50837 15.5979 0.912385 16.5519C1.13938 17.1219 1.42339 17.6759 1.73739 18.2C2.83138 19.983 4.42039 21.4359 6.24739 22.44C6.9354 22.831 7.6554 23.13 8.40439 23.385C8.6304 23.459 8.85439 23.534 9.09338 23.594L9.10939 23.57Z" fill="#0061F0"/>
</g>
<defs>
<clipPath id="clip0_306_102">
<rect width="24" height="24" fill="white"/>
</clipPath>
</defs>
</svg>
