<svg width="24" height="20" viewBox="0 0 24 20" fill="none" xmlns="http://www.w3.org/2000/svg">
<g clip-path="url(#clip0_306_105)">
<path d="M1.46484 3.2832V11.4911L2.87696 10.6968V4.07753L1.46484 3.28322V3.2832Z" fill="#0061F0"/>
<path d="M0.0527344 10.6968V0.812012L8.43713 5.57788V7.25476L1.46485 3.28319V11.4911L0.0527344 10.6968Z" fill="#0061F0"/>
<path d="M16.9984 0.812012V10.6968L11.35 13.874L9.93786 12.9914L15.5863 9.8142V3.19495L8.4375 7.25476V5.57788L16.9984 0.812012Z" fill="#0061F0"/>
<path d="M15.586 0.0177002L8.5254 3.98926L1.46485 0.0177002L0.0527344 0.812005L8.43713 5.57787L16.998 0.812005L15.5859 0.0177002H15.586Z" fill="#0061F0"/>
<path d="M14.1738 3.98925V9.0199L15.5859 9.8142V3.19495L14.1738 3.98925Z" fill="#0061F0"/>
<path d="M7.11328 12.9913L14.1738 9.01978L15.5859 9.81408L9.93751 12.9913L15.4977 16.1686L21.1461 12.9913L22.5582 13.7856L15.4977 17.7572L7.11328 12.9913V12.9913Z" fill="#0061F0"/>
<path d="M7.11328 12.9915V14.6683L15.4977 19.4342V17.7573L7.11328 12.9915Z" fill="#0061F0"/>
<path d="M22.5586 13.7858V8.84338L21.1465 8.04907V12.9915L22.5586 13.7858Z" fill="#0061F0"/>
<path d="M15.498 17.7573L22.5586 13.7858V8.84338L23.9707 8.04907V14.6683L15.4981 19.4342L15.498 17.7573Z" fill="#0061F0"/>
<path d="M23.9707 8.04894L22.5586 8.84325L21.1465 8.04894L22.5586 7.25464L23.9707 8.04894Z" fill="#0061F0"/>
<path d="M22.5586 7.25475V5.57787L23.9707 4.78357V6.46045L22.5586 7.25475Z" fill="#0061F0"/>
<path d="M22.5586 5.57787V7.25475L21.1465 6.46045V4.78357L22.5586 5.57787Z" fill="#0061F0"/>
<path d="M23.9707 4.78356L22.5586 5.57787L21.1465 4.78356L22.5586 3.98926L23.9707 4.78356Z" fill="#0061F0"/>
</g>
<defs>
<clipPath id="clip0_306_105">
<rect width="24" height="19.5048" fill="white"/>
</clipPath>
</defs>
</svg>
