<svg width="24" height="24" viewBox="0 0 24 24" fill="none" xmlns="http://www.w3.org/2000/svg">
<g clip-path="url(#clip0_306_120)">
<path d="M17.1792 9.51802C15.9162 3.95801 12.9372 2.13101 12.6172 1.43201C12.2652 0.939 11.8842 0 11.8842 0C11.8822 0.0190078 11.8802 0.0310078 11.8792 0.0490078V0.0620156H11.8782C11.8762 0.0770156 11.8752 0.0870234 11.8742 0.101016V0.116016H11.8722C11.8722 0.126023 11.8702 0.134016 11.8702 0.142008V0.168H11.8672C11.8662 0.175992 11.8662 0.186 11.8642 0.193008V0.214008H11.8623C11.8623 0.221016 11.8623 0.229008 11.8603 0.235008V0.255H11.8583C11.8583 0.265008 11.8573 0.277008 11.8563 0.286992V0.288984C11.8533 0.305977 11.8503 0.322992 11.8473 0.338977V0.346969H11.8453C11.8443 0.350977 11.8423 0.354961 11.8423 0.358969V0.375961H11.8393V0.397969H11.8343V0.415969H11.8293V0.436969H11.8253V0.455977H11.8213V0.472969H11.8153V0.486961H11.8113V0.504961H11.8073V0.518953H11.8023V0.531961H11.7993V0.546961H11.7953C11.7943 0.547969 11.7943 0.549961 11.7943 0.550969V0.560977H11.7913C11.7903 0.562969 11.7903 0.564984 11.7903 0.566977V0.572977H11.7883C11.7873 0.575977 11.7863 0.580969 11.7863 0.582984C11.7833 0.589992 11.7793 0.596977 11.7763 0.603984V0.605977C11.7743 0.607969 11.7723 0.610969 11.7713 0.612984V0.620977H11.7673V0.628969H11.7623V0.636961H11.7593V0.646969H11.7533V0.660961H11.7493V0.664969H11.7453V0.672961H11.7412V0.683953H11.7372V0.691945H11.7312V0.702937H11.7272V0.71093H11.7222V0.718922H11.7192V0.72893H11.7142V0.736922H11.7102V0.742922H11.7062V0.750914H11.7002V0.759914H11.6962V0.765914H11.6912V0.773906H11.6872V0.784898H11.6822V0.788906H11.6792V0.796898H11.6732V0.800906H11.6692V0.810914H11.6652V0.814922H11.6612V0.822914H11.6562V0.828914H11.6532L11.6512 0.832922V0.83693H11.6492C11.6482 0.838922 11.6472 0.838922 11.6472 0.840938V0.841945H11.6462C11.6452 0.844945 11.6442 0.846938 11.6422 0.848953V0.851953H11.6412C11.6362 0.857953 11.6332 0.863953 11.6292 0.869953V0.870961C11.6272 0.872953 11.6222 0.876961 11.6202 0.880969V0.882961H11.6192C11.6182 0.883969 11.6162 0.884953 11.6162 0.885961V0.888961H11.6142L11.6112 0.891961V0.892969H11.6102C11.6102 0.893977 11.6082 0.894961 11.6072 0.896977V0.900984H11.6042L11.6022 0.902977V0.904969H11.6002C11.6002 0.906961 11.5982 0.906961 11.5982 0.907969V0.910969H11.5942C11.5942 0.911977 11.5932 0.912961 11.5922 0.913969V0.919969H11.5892V0.923977H11.5852V0.929977H11.5812V0.937969H11.5762V0.929977H11.5712V0.933984H11.5672V0.939984H11.5622V0.947977H11.5572V0.951984H11.5532V0.957984H11.5492V0.961992H11.5452V0.969984H11.5392V0.973992H11.5352V0.979992H11.5302V0.984H11.5262V0.988992H11.5212V0.999H11.5192V1.00301H11.5132V1.008H11.5092V1.00999H11.5052V1.014H11.5002V1.02401H11.4962V1.02802H11.4912V1.03202H11.4872V1.03802H11.4822V1.04203H11.4772V1.04604H11.4732V1.05005H11.4692V1.06005H11.4652V1.06505H11.4592V1.06905H11.4552V1.07306H11.4502V1.07906H11.4462V1.08307H11.4412V1.09008H11.4372V1.09409H11.4312V1.10009H11.4292V1.10409H11.4252V1.1081H11.4202V1.11211H11.4162V1.11811H11.4112V1.12212H11.4082C11.4072 1.12312 11.4072 1.12411 11.4072 1.12411V1.1261H11.4052L11.4012 1.13011C11.4012 1.13011 11.3992 1.1321 11.3972 1.13311V1.13911H11.3932V1.1441H11.3892V1.14811H11.3852V1.15212H11.3822L11.3792 1.15512V1.15812H11.3772L11.3752 1.16011V1.16311H11.3732C11.3682 1.16911 11.3662 1.17312 11.3592 1.17912C11.3572 1.18111 11.3512 1.18613 11.3472 1.18913C11.3352 1.19712 11.3202 1.21012 11.3082 1.22112C11.3002 1.22611 11.2922 1.23312 11.2862 1.23811V1.23912H11.2852C11.2692 1.25212 11.2542 1.26413 11.2362 1.27812V1.27913C11.2122 1.29912 11.1892 1.31813 11.1622 1.34112V1.34011H11.1602C11.1032 1.3871 11.0432 1.44012 10.9742 1.49911V1.50012H10.9732C10.8042 1.64812 10.6032 1.83811 10.3782 2.06812L10.3592 2.08713C8.99915 3.49413 6.85617 6.42614 6.63016 11.1641C6.61017 11.5561 6.61415 11.9371 6.63616 12.3081V12.3171C6.74517 14.1841 7.33115 15.7781 8.06416 17.0731V17.0741C8.35617 17.5901 8.67117 18.0592 8.99015 18.4792V18.4802C10.0922 19.9352 11.2172 20.7972 11.5042 21.0062C11.9452 22.0292 11.9042 23.7852 11.9042 23.7852L12.5482 24.0002C12.5482 24.0002 12.4172 22.2992 12.6011 21.4782C12.6581 21.2212 12.7931 21.0022 12.9502 20.8162C13.0562 20.7412 13.3702 20.5152 13.7471 20.1712C13.7651 20.1522 13.7752 20.1352 13.7911 20.1172C15.3121 18.6992 18.1531 15.2072 17.1791 9.51818L17.1792 9.51802Z" fill="#0061F0"/>
</g>
<defs>
<clipPath id="clip0_306_120">
<rect width="24" height="24" fill="white"/>
</clipPath>
</defs>
</svg>
