<svg width="24" height="24" viewBox="0 0 24 24" fill="none" xmlns="http://www.w3.org/2000/svg">
<g clip-path="url(#clip0_306_123)">
<path d="M17.814 22.502C17.725 22.549 17.73 22.568 17.819 22.523C17.8461 22.5112 17.8693 22.4953 17.889 22.4759L17.889 22.476C17.889 22.46 17.887 22.462 17.814 22.502V22.502ZM17.992 22.408C17.95 22.441 17.95 22.443 18.001 22.417C18.029 22.403 18.053 22.387 18.053 22.382C18.053 22.363 18.041 22.368 17.992 22.408ZM18.109 22.337C18.067 22.37 18.067 22.372 18.118 22.346C18.146 22.332 18.17 22.316 18.17 22.311C18.17 22.292 18.158 22.297 18.109 22.337ZM18.226 22.267C18.184 22.3 18.184 22.302 18.235 22.276C18.263 22.262 18.287 22.246 18.287 22.241C18.287 22.222 18.275 22.227 18.226 22.267ZM18.388 22.162C18.306 22.214 18.28 22.249 18.353 22.209C18.405 22.179 18.489 22.115 18.475 22.113C18.4417 22.1274 18.4131 22.1438 18.3866 22.1629L18.388 22.162ZM11.215 0.00599202C11.163 0.0109842 10.999 0.026992 10.851 0.038992C7.44296 0.346 4.24995 2.185 2.22795 5.01198C1.1551 6.48609 0.404914 8.26241 0.117898 10.1899L0.109953 10.255C0.0139531 10.914 0.00195312 11.109 0.00195312 12.003C0.00195312 12.897 0.0139531 13.091 0.109953 13.751C0.761961 18.257 3.96896 22.043 8.31795 23.446C9.09695 23.6969 9.91796 23.8679 10.851 23.971C11.215 24.011 12.786 24.011 13.15 23.971C14.761 23.7929 16.127 23.3939 17.473 22.7069C17.679 22.6009 17.719 22.573 17.691 22.5499C17.4567 22.2657 16.8155 21.4129 16.18 20.5555L15.737 19.9299L13.818 17.3379L11.414 13.7799C9.88037 11.4546 9.08323 10.296 8.27898 9.14287L8.99295 10.2239C8.98395 10.222 8.97395 11.803 8.96996 13.7329C8.96295 17.1129 8.96096 17.2489 8.91795 17.3289C8.87619 17.4229 8.80416 17.4972 8.71447 17.5408L8.71196 17.5419C8.63696 17.5799 8.57096 17.5869 8.21696 17.5869H7.81095L7.70295 17.5189C7.63634 17.4765 7.58305 17.4187 7.54712 17.3504L7.54597 17.3479L7.49696 17.2419L7.50195 12.5389L7.50896 7.83393L7.58197 7.74292C7.63067 7.68595 7.68821 7.63827 7.75283 7.60157L7.75597 7.59993C7.85197 7.55294 7.88996 7.54792 8.29597 7.54792C8.77496 7.54792 8.85397 7.56693 8.97896 7.70291C8.89611 7.48865 9.85013 8.9098 10.7965 10.3364L11.874 12.0639C13.432 14.4259 15.561 17.6509 16.608 19.2349L18.508 22.1129L18.604 22.0499C19.5406 21.4216 20.3504 20.7078 21.0568 19.9011L21.069 19.8869C22.5289 18.2228 23.5379 16.129 23.8849 13.8186L23.893 13.7529C23.989 13.0939 24.001 12.8989 24.001 12.0049C24.001 11.1109 23.989 10.9169 23.893 10.2569C23.241 5.75092 20.034 1.96492 15.685 0.56193C14.9631 0.322515 14.1163 0.13832 13.2425 0.0437967L13.187 0.0389217C12.962 0.0159295 11.411 -0.0100861 11.215 0.0059217V0.00599202ZM16.127 7.264C16.2393 7.3213 16.3241 7.41911 16.363 7.53768L16.364 7.54101C16.383 7.60202 16.387 8.90601 16.383 11.845L16.376 16.063L15.632 14.923L14.886 13.783V10.717C14.886 8.73501 14.895 7.621 14.909 7.567C14.9446 7.43891 15.0281 7.33452 15.1385 7.27225L15.141 7.27098C15.237 7.22198 15.272 7.21698 15.641 7.21698C15.9879 7.21698 16.049 7.22198 16.127 7.26398L16.127 7.264Z" fill="#0061F0"/>
</g>
<defs>
<clipPath id="clip0_306_123">
<rect width="24" height="24" fill="white"/>
</clipPath>
</defs>
</svg>
