<svg width="24" height="24" viewBox="0 0 24 24" fill="none" xmlns="http://www.w3.org/2000/svg">
<g clip-path="url(#clip0_306_126)">
<path d="M11.9975 24C11.6765 24 11.3565 23.916 11.0755 23.753L8.13948 22.016C7.70148 21.771 7.91549 21.684 8.05949 21.633C8.64449 21.43 8.7625 21.383 9.38748 21.029C9.45248 20.992 9.53849 21.006 9.60548 21.046L11.8615 22.385C11.9435 22.43 12.0585 22.43 12.1335 22.385L20.9285 17.309C21.0105 17.262 21.0625 17.168 21.0625 17.071V6.92097C21.0625 6.82197 21.0095 6.72897 20.9255 6.67897L12.1345 1.60698C12.0535 1.55999 11.9455 1.55999 11.8634 1.60698L3.07445 6.67998C2.98945 6.72899 2.93545 6.82499 2.93545 6.92099V17.071C2.93545 17.168 2.98945 17.26 3.07445 17.306L5.48345 18.698C6.79045 19.352 7.59145 18.582 7.59145 17.808V7.78701C7.59145 7.645 7.70545 7.534 7.84745 7.534H8.96245C9.10145 7.534 9.21745 7.64601 9.21745 7.78701V17.808C9.21745 19.553 8.26745 20.553 6.61345 20.553C6.10544 20.553 5.70445 20.553 4.58744 20.002L2.27943 18.675C1.70943 18.346 1.35742 17.73 1.35742 17.071V6.92101C1.35742 6.26202 1.71041 5.64601 2.27943 5.31801L11.0744 0.236006C11.6314 -0.0789941 12.3704 -0.0789941 12.9224 0.236006L21.7164 5.31801C22.2864 5.647 22.6404 6.262 22.6404 6.92101V17.071C22.6404 17.73 22.2864 18.344 21.7164 18.675L12.9224 23.753C12.6424 23.916 12.3234 24 11.9974 24L11.9975 24ZM19.0985 13.993C19.0985 12.093 17.8145 11.587 15.1115 11.23C12.3805 10.869 12.1025 10.682 12.1025 10.043C12.1025 9.51501 12.3375 8.81001 14.3605 8.81001C16.1675 8.81001 16.8335 9.199 17.1075 10.417C17.1315 10.532 17.2365 10.616 17.3545 10.616H18.4955C18.5665 10.616 18.6335 10.585 18.6815 10.535C18.7295 10.481 18.7555 10.412 18.7485 10.339C18.5715 8.24099 17.1775 7.26299 14.3605 7.26299C11.8525 7.26299 10.3565 8.32098 10.3565 10.096C10.3565 12.021 11.8445 12.553 14.2515 12.791C17.1315 13.073 17.3545 13.494 17.3545 14.06C17.3545 15.043 16.5655 15.462 14.7125 15.462C12.3855 15.462 11.8735 14.878 11.7015 13.72C11.6815 13.596 11.5755 13.505 11.4485 13.505H10.3115C10.1705 13.505 10.0575 13.617 10.0575 13.758C10.0575 15.24 10.8635 17.006 14.7125 17.006C17.5005 17.007 19.0985 15.91 19.0985 13.993L19.0985 13.993Z" fill="#0061F0"/>
</g>
<defs>
<clipPath id="clip0_306_126">
<rect width="24" height="24" fill="white"/>
</clipPath>
</defs>
</svg>
