<svg width="24" height="24" viewBox="0 0 24 24" fill="none" xmlns="http://www.w3.org/2000/svg">
<path d="M7.99585 13.1417C7.1186 13.3907 6.54308 13.8272 6.16395 14.2634C6.52708 13.9456 7.01348 13.654 7.66963 13.468C8.34073 13.2778 8.91325 13.2791 9.38632 13.3704V13.0005C8.98277 12.9636 8.5201 12.993 7.99585 13.1417ZM6.12385 10.032L2.8659 10.8903C2.8659 10.8903 2.92528 10.9742 3.0352 11.0861L5.79755 10.3582C5.79755 10.3582 5.7584 10.8626 5.41848 11.3138C6.06148 10.8273 6.12385 10.032 6.12385 10.032ZM8.85098 17.6887C4.26615 18.9236 1.84048 13.6103 1.10609 10.8524C0.766788 9.57943 0.618673 8.61533 0.579195 7.99315C0.574953 7.92855 0.576913 7.8741 0.58148 7.8242C0.343645 7.83855 0.229779 7.96218 0.252945 8.31945C0.292423 8.94128 0.44054 9.90533 0.77984 11.1787C1.51391 13.9361 3.9399 19.2495 8.52475 18.0146C9.5227 17.7458 10.2724 17.2561 10.8352 16.631C10.3165 17.0995 9.66723 17.4685 8.85098 17.6887ZM9.71255 6.78015V7.10645H11.5109C11.474 6.99093 11.4368 6.88683 11.3999 6.78015H9.71255Z" fill="#0061F0"/>
<path d="M11.9129 9.46735C12.7216 9.69703 13.1494 10.2641 13.3755 10.7659L14.2772 11.022C14.2772 11.022 14.1542 9.26578 12.5657 8.81455C11.0796 8.39233 10.1651 9.64025 10.0539 9.80175C10.4862 9.49375 11.1175 9.2416 11.9129 9.46735ZM19.0911 10.774C17.6036 10.3498 16.6895 11.6004 16.5799 11.7596C17.0125 11.452 17.6435 11.1997 18.4385 11.4265C19.246 11.6565 19.6734 12.2229 19.9002 12.725L20.8032 12.9821C20.8032 12.9821 20.6782 11.2255 19.0911 10.774ZM18.1952 15.4045L10.6937 13.3073C10.6937 13.3073 10.7749 13.7191 11.0865 14.2522L17.4024 16.0179C17.9224 15.717 18.1952 15.4045 18.1952 15.4045ZM12.9944 19.9185C7.05467 18.326 7.77275 10.758 8.73387 7.17183C9.1296 5.69393 9.53645 4.59545 9.87382 3.8591C9.67252 3.81768 9.5058 3.9237 9.34105 4.25875C8.98282 4.98533 8.52475 6.1683 8.08142 7.82435C7.12057 11.4105 6.40247 18.9782 12.3419 20.5707C15.1415 21.3207 17.3224 20.1808 18.9482 18.3906C17.405 19.7883 15.4347 20.5719 12.9944 19.9185Z" fill="#0061F0"/>
<path d="M9.7126 15.9152V14.388L5.46942 15.5912C5.46942 15.5912 5.78295 13.7695 7.9959 13.1417C8.667 12.9515 9.2396 12.9528 9.7126 13.0442V6.78013H11.8372C11.6059 6.0653 11.3821 5.51498 11.1941 5.13258C10.8832 4.49965 10.5645 4.91923 9.84087 5.52443C9.33122 5.9502 8.0432 6.85848 6.10497 7.38078C4.1667 7.9034 2.59972 7.7648 1.94591 7.65158C1.01903 7.49168 0.534222 7.28813 0.579577 7.99313C0.619047 8.61495 0.767172 9.57908 1.10647 10.8524C1.84053 13.6099 4.26652 18.9232 8.85135 17.6884C10.049 17.3657 10.8943 16.7278 11.4803 15.9149L9.7126 15.9152ZM2.86562 10.8903L6.1239 10.0319C6.1239 10.0319 6.02892 11.2854 4.80745 11.6074C3.58565 11.9291 2.86562 10.8903 2.86562 10.8903Z" fill="#0061F0"/>
<path d="M21.9751 6.8525C21.1281 7.00098 19.0962 7.18595 16.5851 6.51288C14.0733 5.8402 12.4068 4.6637 11.7465 4.1107C10.8105 3.32673 10.3988 2.78188 9.99356 3.606C9.63533 4.33288 9.17723 5.51588 8.73383 7.17193C7.77306 10.7581 7.05498 18.3258 12.9944 19.9182C18.9325 21.5094 22.0938 14.5961 23.0547 11.0096C23.4981 9.35388 23.6925 8.1001 23.746 7.29168C23.807 6.3759 23.178 6.64173 21.9751 6.8525ZM10.0418 9.81945C10.0418 9.81945 10.9778 8.3637 12.5653 8.8149C14.1539 9.26613 14.2769 11.0223 14.2769 11.0223L10.0418 9.81945ZM13.917 16.352C11.1247 15.534 10.694 13.3074 10.694 13.3074L18.1951 15.4046C18.1951 15.4042 16.681 17.1597 13.917 16.352ZM16.5691 11.776C16.5691 11.776 17.5038 10.3212 19.091 10.7737C20.6782 11.2256 20.8032 12.9818 20.8032 12.9818L16.5691 11.776Z" fill="#0061F0"/>
<path d="M8.2299 14.8085L5.4695 15.5909C5.4695 15.5909 5.76935 13.8826 7.80285 13.2057L6.23977 7.33972L6.1047 7.38077C4.16645 7.90347 2.59947 7.7648 1.94567 7.65157C1.01879 7.49175 0.533985 7.28812 0.579332 7.9932C0.61881 8.61502 0.766927 9.57907 1.10622 10.8524C1.84029 13.6099 4.2663 18.9232 8.8511 17.6883L8.98617 17.6459L8.2299 14.8085ZM2.8657 10.8903L6.12397 10.0319C6.12397 10.0319 6.029 11.2854 4.80755 11.6074C3.58572 11.929 2.8657 10.8903 2.8657 10.8903Z" fill="#0061F0"/>
<path d="M14.043 16.3826L13.9167 16.3519C11.1243 15.534 10.6937 13.3074 10.6937 13.3074L14.5617 14.3886L16.6095 6.5194L16.5848 6.51288C14.073 5.8402 12.4065 4.6637 11.7461 4.1107C10.8101 3.32673 10.3984 2.78188 9.99321 3.606C9.63533 4.33288 9.17723 5.51588 8.73383 7.17193C7.77306 10.7581 7.05498 18.3258 12.9944 19.9182L13.1161 19.9456L14.043 16.3826ZM10.0418 9.81948C10.0418 9.81948 10.9778 8.3637 12.5653 8.8149C14.1539 9.26613 14.2769 11.0223 14.2769 11.0223L10.0418 9.81948Z" fill="#0061F0"/>
<path d="M8.37055 14.7683L7.63027 14.9784C7.80515 15.9643 8.1134 16.9104 8.59725 17.7463C8.68145 17.7277 8.76497 17.7117 8.85075 17.6882C9.07555 17.6276 9.284 17.5525 9.4847 17.4706C8.9441 16.6683 8.58647 15.7444 8.37055 14.7683ZM8.08147 7.82439C7.70107 9.24422 7.36075 11.2878 7.45442 13.3376C7.6221 13.2649 7.79922 13.1971 7.99597 13.1412L8.13302 13.1106C7.96595 10.9211 8.3271 8.68992 8.73395 7.17187C8.83707 6.78784 8.94047 6.43064 9.04355 6.09752C8.87752 6.20319 8.69875 6.31149 8.49512 6.42307C8.3578 6.84692 8.21912 7.31019 8.08147 7.82439Z" fill="#0061F0"/>
</svg>
