<svg width="24" height="22" viewBox="0 0 24 22" fill="none" xmlns="http://www.w3.org/2000/svg">
<path d="M6.92963 12.6874C7.09363 12.5936 7.30463 12.6522 7.39833 12.8202L7.46083 12.9257C7.94133 13.7772 8.44133 14.5858 8.96083 15.3515C9.57413 16.2538 10.2655 17.1679 11.0351 18.0936C11.0937 18.1632 11.1225 18.2532 11.1151 18.3439C11.1078 18.4345 11.065 18.5187 10.996 18.578L10.9218 18.6444C8.37883 20.8671 6.73043 21.3084 5.96863 19.9764C5.22263 18.6718 5.49213 16.3046 6.77723 12.8671C6.80527 12.7911 6.85924 12.7275 6.92963 12.6874ZM17.7499 15.3007C17.9335 15.2694 18.1093 15.3867 18.1444 15.5702L18.164 15.6718C18.7929 18.9569 18.3515 20.6015 16.8397 20.6015C15.3593 20.6015 13.4804 19.1991 11.1913 16.3983C11.1399 16.3358 11.1135 16.2565 11.1171 16.1757C11.1171 15.9882 11.2733 15.8358 11.4608 15.8358H11.5819C12.5191 15.8432 13.4561 15.8106 14.3905 15.7382C15.4608 15.6522 16.5819 15.5077 17.7499 15.3007ZM18.6209 8.32412C18.6529 8.23778 18.7175 8.16738 18.8007 8.12795C18.8839 8.08853 18.9792 8.0832 19.0663 8.11312L19.1679 8.14832C22.4296 9.25772 23.6718 10.4803 22.8866 11.8124C22.121 13.1171 19.8944 14.0664 16.203 14.6601C16.121 14.6718 16.035 14.6561 15.9647 14.6131C15.7967 14.5155 15.7382 14.3046 15.8397 14.1366L15.9022 14.0312C16.4062 13.1874 16.8592 12.3476 17.2694 11.5077C17.746 10.5194 18.199 9.45692 18.6209 8.32412ZM7.79693 7.33972C7.87893 7.32802 7.96493 7.34372 8.03523 7.38672C8.20323 7.48432 8.26173 7.69522 8.16023 7.86322L8.09773 7.96862C7.60677 8.79022 7.15063 9.63213 6.73053 10.4921C6.25393 11.4804 5.80083 12.5429 5.37893 13.6757C5.34691 13.762 5.28242 13.8324 5.19922 13.8718C5.11602 13.9113 5.02071 13.9166 4.93363 13.8867L4.83203 13.8515C1.57033 12.7421 0.328126 11.5195 1.11333 10.1874C1.87893 8.88272 4.10553 7.93342 7.79693 7.33972ZM13.0781 3.35542C15.6211 1.13272 17.2695 0.691419 18.0313 2.02342C18.7773 3.32802 18.5078 5.69522 17.2227 9.13272C17.1947 9.20871 17.1407 9.27235 17.0703 9.31242C16.9063 9.40622 16.6953 9.34762 16.6016 9.17962L16.5391 9.07412C16.0586 8.22262 15.5586 7.41402 15.0391 6.64832C14.4258 5.74602 13.7344 4.83192 12.9648 3.90622C12.9062 3.8366 12.8775 3.74668 12.8848 3.65598C12.8921 3.56529 12.9349 3.48114 13.0039 3.42182L13.0781 3.35542ZM7.28513 1.27342C8.76563 1.27342 10.6484 2.67572 12.9336 5.47642C12.9839 5.53828 13.0115 5.6155 13.0117 5.69522C13.0078 5.88662 12.8555 6.03902 12.6641 6.03902L12.5469 6.03502C11.6097 6.03082 10.6728 6.06471 9.73833 6.13662C8.66413 6.22262 7.54303 6.36712 6.37503 6.57412C6.28658 6.5892 6.19574 6.56903 6.12199 6.51792C6.04824 6.46681 5.99746 6.38883 5.98053 6.30072L5.96093 6.20302C5.33193 2.91792 5.77333 1.27342 7.28513 1.27342ZM10.1562 7.08582H13.8437C13.9552 7.08586 14.0647 7.11509 14.1613 7.1706C14.2579 7.22611 14.3383 7.30597 14.3945 7.40222L16.2422 10.621C16.296 10.7171 16.3243 10.8254 16.3243 10.9355C16.3243 11.0456 16.296 11.1538 16.2422 11.2499L14.3945 14.4726C14.3384 14.5689 14.258 14.6487 14.1613 14.7042C14.0647 14.7597 13.9553 14.789 13.8438 14.789H10.1563C9.92973 14.789 9.71883 14.6679 9.60933 14.4726L7.75783 11.2499C7.70402 11.1538 7.67577 11.0455 7.67577 10.9354C7.67577 10.8253 7.70402 10.717 7.75783 10.6209L9.60943 7.40222C9.71873 7.20692 9.92973 7.08582 10.1562 7.08582ZM13.3867 7.87882C13.4982 7.87886 13.6077 7.90809 13.7043 7.9636C13.8009 8.01911 13.8813 8.09897 13.9375 8.19522L15.3281 10.621C15.3819 10.7171 15.4102 10.8254 15.4102 10.9355C15.4102 11.0456 15.3819 11.1538 15.3281 11.2499L13.9375 13.6796C13.8813 13.7759 13.8009 13.8557 13.7043 13.9112C13.6077 13.9668 13.4982 13.996 13.3867 13.996H10.6133C10.3867 13.996 10.1758 13.8749 10.0664 13.6796L8.67193 11.2499C8.61812 11.1538 8.58987 11.0455 8.58987 10.9354C8.58987 10.8253 8.61812 10.717 8.67193 10.6209L10.0664 8.19522C10.1758 7.99992 10.3867 7.87882 10.6133 7.87882H13.3867ZM12.8945 8.74602H11.1055C10.8789 8.74602 10.6719 8.86322 10.5585 9.06242L9.66023 10.621C9.60644 10.7171 9.57819 10.8254 9.57819 10.9355C9.57819 11.0456 9.60644 11.1538 9.66023 11.2499L10.5586 12.8124C10.614 12.9085 10.6937 12.9884 10.7897 13.0439C10.8857 13.0994 10.9946 13.1287 11.1055 13.1288H12.8945C13.0055 13.1288 13.1144 13.0995 13.2104 13.0439C13.3065 12.9884 13.3862 12.9085 13.4415 12.8124L14.3398 11.2499C14.3936 11.1538 14.4219 11.0455 14.4219 10.9354C14.4219 10.8253 14.3936 10.717 14.3398 10.6209L13.4414 9.06242C13.3281 8.86322 13.1211 8.74602 12.8945 8.74602ZM12.418 9.57412C12.6445 9.57412 12.8555 9.69522 12.9648 9.89052L13.3868 10.621C13.5 10.8163 13.5 11.0585 13.3868 11.2499L12.9648 11.9843C12.8555 12.1796 12.6445 12.3007 12.418 12.3007H11.582C11.4711 12.3006 11.3622 12.2713 11.2662 12.2158C11.1702 12.1602 11.0906 12.0804 11.0352 11.9843L10.6132 11.2499C10.5 11.0585 10.5 10.8163 10.6132 10.6209L11.0352 9.89052C11.0906 9.79443 11.1702 9.7146 11.2662 9.65906C11.3622 9.60352 11.4711 9.57422 11.582 9.57412H12.418ZM12 10.3905C11.9042 10.3908 11.8101 10.4162 11.7272 10.4642C11.6442 10.5122 11.5753 10.5811 11.5273 10.664C11.4297 10.832 11.4297 11.039 11.5273 11.2108C11.5755 11.2933 11.6446 11.3616 11.7276 11.4089C11.8105 11.4562 11.9045 11.4809 12 11.4804C12.0955 11.4809 12.1895 11.4562 12.2725 11.4089C12.3555 11.3616 12.4245 11.2933 12.4727 11.2108C12.5703 11.039 12.5703 10.8319 12.4727 10.664C12.4247 10.5811 12.3558 10.5122 12.2728 10.4642C12.1899 10.4162 12.0959 10.3908 12 10.3905ZM7.57813 10.9374H8.55863ZM18.9804 6.74992C19.371 4.85542 19.4569 3.40612 19.203 2.35152C19.0546 1.72252 18.7812 1.21472 18.3632 0.843719C17.9218 0.453019 17.3632 0.261719 16.7382 0.261719C15.703 0.261719 14.6171 0.734319 13.4569 1.62882C12.9843 1.99212 12.4921 2.43352 11.9843 2.94522C11.9413 2.89442 11.8983 2.84372 11.8476 2.80072C10.4022 1.51552 9.18743 0.718719 8.14833 0.410119C7.53123 0.226519 6.95303 0.210819 6.42573 0.386619C5.86713 0.574119 5.42173 0.960819 5.10933 1.50382C4.59373 2.39832 4.45693 3.57802 4.64833 5.03122C4.72653 5.62102 4.86323 6.26552 5.05073 6.96472C4.97772 6.97329 4.90574 6.98903 4.83583 7.01172C3.00793 7.62092 1.71093 8.26932 0.925726 9.01542C0.460826 9.45682 0.156226 9.95292 0.0429256 10.4959C-0.0703744 11.074 0.0429257 11.6521 0.355426 12.1951C0.871026 13.0896 1.82023 13.7928 3.17183 14.3514C3.71483 14.574 4.32803 14.7771 5.01553 14.9607C4.98338 15.0333 4.95979 15.1093 4.94523 15.1873C4.55463 17.0779 4.46873 18.5311 4.72263 19.5818C4.87103 20.2108 5.14833 20.7225 5.56243 21.0896C6.00383 21.4803 6.56243 21.6716 7.18743 21.6716C8.22263 21.6716 9.30843 21.199 10.4687 20.3084C10.9452 19.9373 11.4413 19.492 11.9569 18.9724C12.0123 19.0558 12.0779 19.1319 12.1522 19.199C13.5976 20.4842 14.8124 21.281 15.8515 21.5896C16.4687 21.7732 17.0468 21.7889 17.5741 21.6131C18.1327 21.4256 18.5781 21.0389 18.8905 20.4959C19.4062 19.6014 19.5429 18.4217 19.3515 16.9686C19.2695 16.3553 19.1288 15.6873 18.9257 14.9568C19.0065 14.9492 19.0863 14.9335 19.164 14.91C20.992 14.3006 22.289 13.6522 23.0741 12.906C23.539 12.4647 23.8437 11.9686 23.9569 11.4256C24.0702 10.8475 23.9569 10.2693 23.6444 9.72642C23.1288 8.83182 22.1796 8.12872 20.828 7.57012C20.2694 7.33972 19.6327 7.12872 18.9218 6.94512C18.949 6.88256 18.9687 6.8171 18.9804 6.74992Z" fill="#206BFF"/>
</svg>
