<svg width="24" height="24" viewBox="0 0 24 24" fill="none" xmlns="http://www.w3.org/2000/svg">
<g clip-path="url(#clip0_306_129)">
<path d="M12 9.86103C10.8187 9.86103 9.86102 10.8187 9.86102 12C9.86102 13.1814 10.8187 14.139 12 14.139C13.1814 14.139 14.139 13.1814 14.139 12C14.139 10.8187 13.1814 9.86103 12 9.86103ZM6.00802 16.255L5.53601 16.135C2.01802 15.246 0 13.737 0 11.996C0 10.2551 2.01799 8.74604 5.53601 7.85705L6.00802 7.73806L6.14102 8.20606C6.54947 9.60139 7.01306 10.7881 7.56532 11.9237L7.50403 11.7841L7.60502 11.9971L7.50403 12.2101C7.01166 13.2071 6.54802 14.3939 6.18305 15.6231L6.14102 15.788L6.00802 16.255ZM5.31703 8.95004C2.64302 9.70104 1.00202 10.85 1.00202 11.996C1.00202 13.141 2.64302 14.29 5.31703 15.0421C5.70082 13.8272 6.10163 12.8186 6.56365 11.8447L6.49903 11.9961C6.10064 11.1724 5.69981 10.1638 5.36573 9.1253L5.31703 8.95006V8.95004ZM17.992 16.255L17.859 15.786C17.4513 14.392 16.9873 13.2056 16.4341 12.0706L16.495 12.209L16.394 11.996L16.495 11.783C16.987 10.7865 17.4509 9.59977 17.8167 8.37075L17.859 8.20503L17.992 7.73703L18.465 7.85602C21.982 8.74503 24 10.254 24 11.996C24 13.738 21.982 15.246 18.465 16.135L17.992 16.255ZM17.501 11.996C17.981 13.035 18.378 14.056 18.683 15.042C21.358 14.29 22.998 13.141 22.998 11.996C22.998 10.85 21.357 9.70203 18.683 8.95001C18.3 10.164 17.8992 11.1726 17.4368 12.1462L17.501 11.996V11.996ZM5.31002 8.94502L5.17702 8.47803C4.18802 4.99203 4.48802 2.49404 6.00002 1.62202C7.48303 0.766012 9.86402 1.77701 12.359 4.33803L12.699 4.68704L12.359 5.03604C11.4994 5.92861 10.7036 6.89738 9.98782 7.92593L9.93701 8.00304L9.80201 8.19605L9.567 8.21604C8.16098 8.32903 6.86998 8.54515 5.61863 8.86097L5.78198 8.82605L5.31002 8.94502ZM7.20602 2.31502C6.93802 2.31502 6.70102 2.37303 6.50102 2.48801C5.50702 3.06101 5.33102 5.05301 6.01603 7.74101C6.92379 7.52729 8.02659 7.35024 9.15084 7.24728L9.24905 7.24001C9.91959 6.29194 10.5931 5.46225 11.3164 4.67923L11.301 4.69601C9.74105 3.177 8.26404 2.31502 7.20605 2.31502H7.20602ZM16.795 22.677C16.794 22.677 16.794 22.677 16.795 22.677C15.37 22.677 13.54 21.604 11.641 19.654L11.301 19.305L11.641 18.956C12.5003 18.0633 13.2958 17.0942 14.0112 16.0653L14.062 15.988L14.197 15.795L14.431 15.775C15.8373 15.6627 17.1291 15.4469 18.3812 15.1312L18.218 15.166L18.69 15.047L18.824 15.515C19.811 18.999 19.512 21.498 18 22.369C17.6631 22.5629 17.2592 22.6772 16.8286 22.6772C16.8168 22.6772 16.805 22.6771 16.7932 22.677L16.795 22.677ZM12.699 19.296C14.259 20.815 15.736 21.677 16.794 21.677H16.795C17.062 21.677 17.3 21.619 17.499 21.504C18.493 20.931 18.67 18.938 17.984 16.25C17.0754 16.4642 15.9722 16.6412 14.8475 16.7438L14.75 16.751C14.0804 17.6996 13.4071 18.5296 12.6838 19.3127L12.699 19.296ZM18.69 8.94502L18.218 8.82603C17.1285 8.5441 15.8367 8.32793 14.514 8.22141L14.431 8.21604L14.197 8.19605L14.062 8.00304C13.2963 6.89719 12.5009 5.92838 11.6341 5.02878L11.641 5.03604L11.301 4.68704L11.641 4.33803C14.135 1.77802 16.515 0.76702 18 1.62202C19.512 2.49401 19.812 4.99203 18.824 8.47702L18.69 8.94502ZM14.75 7.24004C15.892 7.34403 16.977 7.51303 17.984 7.74103C18.67 5.05303 18.493 3.06104 17.499 2.48804C16.511 1.91703 14.654 2.79204 12.699 4.69604C13.4066 5.46221 14.0797 6.29187 14.6982 7.16311L14.75 7.24004ZM7.20602 22.677C7.19573 22.6772 7.18362 22.6773 7.17145 22.6773C6.74084 22.6773 6.33691 22.5629 5.98842 22.3629L6.00002 22.369C4.48802 21.498 4.18802 19 5.17702 15.515L5.30902 15.047L5.78102 15.166C6.93602 15.457 8.21002 15.662 9.56602 15.775L9.80102 15.795L9.93502 15.988C10.7019 17.0941 11.4976 18.0631 12.3642 18.9635L12.357 18.956L12.697 19.305L12.357 19.654C10.459 21.604 8.62903 22.677 7.20602 22.677ZM6.01603 16.25C5.33004 18.938 5.50704 20.931 6.50102 21.504C7.48802 22.067 9.34402 21.199 11.301 19.296C10.5937 18.5296 9.92016 17.6996 9.3011 16.8282L9.24902 16.751C8.02732 16.6413 6.92449 16.4643 5.8482 16.2177L6.01603 16.25ZM12 16.878C11.177 16.878 10.331 16.842 9.48403 16.772L9.24902 16.752L9.11402 16.559C8.70577 15.9833 8.25959 15.2907 7.84151 14.5796L7.76402 14.437C7.42467 13.8686 7.03594 13.1383 6.6769 12.3912L6.59803 12.209L6.49802 11.996L6.59803 11.783C7.03575 10.854 7.42448 10.1238 7.84144 9.41206L7.76402 9.55503C8.17802 8.83904 8.63302 8.12504 9.11402 7.43302L9.24902 7.24001L9.48403 7.22002C10.2379 7.15219 11.1147 7.11352 12.0005 7.11352C12.8864 7.11352 13.7632 7.15219 14.6294 7.22794L14.517 7.22002L14.751 7.24001L14.885 7.43302C15.7675 8.68243 16.6059 10.1084 17.3241 11.6029L17.402 11.783L17.503 11.996L17.402 12.209C16.6086 13.8827 15.7701 15.3087 14.8226 16.6524L14.885 16.559L14.751 16.752L14.517 16.772C13.67 16.842 12.823 16.878 12 16.878ZM9.80302 15.794C11.283 15.905 12.717 15.905 14.198 15.794C14.9509 14.71 15.6817 13.4658 16.3183 12.167L16.394 11.996C15.6839 10.5275 14.9527 9.28318 14.1349 8.10338L14.197 8.19802C13.5394 8.145 12.7732 8.11477 12 8.11477C11.2268 8.11477 10.4607 8.145 9.70275 8.20432L9.80299 8.19802C9.04666 9.28346 8.31544 10.5278 7.68026 11.8277L7.60598 11.996C8.31921 13.466 9.05032 14.7102 9.86646 15.8911L9.80297 15.794H9.80302Z" fill="#0061F0"/>
</g>
<defs>
<clipPath id="clip0_306_129">
<rect width="24" height="24" fill="white"/>
</clipPath>
</defs>
</svg>
