<svg width="24" height="23" viewBox="0 0 24 23" fill="none" xmlns="http://www.w3.org/2000/svg">
<path d="M16.6294 15.644C17.5151 15.5539 18.187 14.8032 18.1565 13.9023C18.126 13.0016 17.3624 12.281 16.4462 12.281H16.3851C15.4382 12.311 14.7054 13.0917 14.7359 14.0225C14.7665 14.4729 14.9497 14.8632 15.2246 15.1335C14.1862 17.1453 12.598 18.6166 10.2158 19.8477C8.59712 20.6884 6.91744 20.9887 5.23772 20.7786C3.86334 20.5984 2.79441 19.9979 2.12241 19.0069C1.14515 17.5356 1.05356 15.9442 1.87818 14.3528C2.4585 13.2118 3.37462 12.371 3.95494 11.9506C3.83278 11.5603 3.6495 10.8997 3.5579 10.4193C-0.870564 13.5721 -0.412408 17.8359 0.931408 19.8477C1.93922 21.3491 3.9855 22.2799 6.24553 22.2799C6.85631 22.2799 7.46712 22.2198 8.078 22.0698C11.9873 21.3191 14.9498 19.037 16.6294 15.644ZM22.0047 11.9207C19.6836 9.24826 16.263 7.77698 12.3537 7.77698H11.8651C11.5902 7.2365 11.0099 6.8761 10.3686 6.8761H10.3074C9.36072 6.90618 8.62784 7.68682 8.65832 8.6177C8.68888 9.5185 9.45232 10.2391 10.3686 10.2391H10.4296C11.1015 10.2091 11.6818 9.78874 11.9262 9.21818H12.4758C14.797 9.21818 16.9959 9.87874 18.9812 11.1699C20.5082 12.1608 21.6077 13.452 22.2185 15.0134C22.7377 16.2745 22.7071 17.5056 22.1574 18.5566C21.3022 20.1479 19.8669 21.0187 17.9733 21.0187C16.7516 21.0187 15.5911 20.6584 14.9802 20.3882C14.6443 20.6884 14.0334 21.1688 13.6058 21.4692C14.9192 22.0697 16.263 22.4 17.5457 22.4C20.4776 22.4 22.6461 20.8085 23.4707 19.2171C24.3563 17.4755 24.2952 14.4729 22.0047 11.9207ZM6.48984 16.1543C6.52041 17.0551 7.28392 17.7757 8.20016 17.7757H8.26128C9.208 17.7458 9.94096 16.9651 9.9104 16.0343C9.87992 15.1334 9.11632 14.4128 8.20016 14.4128H8.13912C8.078 14.4128 7.98632 14.4128 7.92536 14.4427C6.67312 12.401 6.15394 10.1791 6.33722 7.7769C6.45928 5.97527 7.07015 4.41384 8.13912 3.12266C9.02472 2.01166 10.735 1.47118 11.8957 1.44123C15.133 1.38114 16.5072 5.34465 16.5989 6.9361C16.9959 7.02618 17.6678 7.23642 18.126 7.38658C17.7594 2.52227 14.7054 0 11.7735 0C9.02472 0 6.48984 1.95175 5.48194 4.83431C4.0771 8.6777 4.99331 12.371 6.70359 15.2836C6.55097 15.4938 6.45928 15.824 6.48984 16.1543Z" fill="#206BFF"/>
</svg>
