<svg width="25" height="24" viewBox="0 0 25 24" fill="none" xmlns="http://www.w3.org/2000/svg">
<path d="M20.1117 16.0894C18.3687 16.0894 16.8939 17.162 16.3575 18.771H10.7263C10.7263 17.8324 10.4581 17.0279 10.0559 16.3575L19.5754 6.56983C19.9777 6.56983 20.3799 6.70391 20.7821 6.70391C22.6592 6.70391 24.1341 5.22905 24.1341 3.35196C24.1341 1.47486 22.6592 0 20.7821 0C18.905 0 17.4302 1.47486 17.4302 3.35196C17.4302 3.75419 17.5642 4.2905 17.6983 4.69274L8.31285 14.3464C7.50838 13.676 6.43575 13.4078 5.36313 13.4078V7.77654C6.97207 7.24022 8.04469 5.76536 8.04469 4.02235C8.04469 1.74302 6.30168 0 4.02235 0C1.74302 0 0 1.74302 0 4.02235C0 5.76536 1.07263 7.24022 2.68156 7.77654V14.0782C1.07263 15.0168 0 16.7598 0 18.6369C0 21.5866 2.41341 24 5.36313 24C7.3743 24 9.11732 22.9274 9.92179 21.3184H16.2235C16.7598 22.7933 18.2346 24 19.9777 24C22.1229 24 24 22.257 24 19.9777C24.1341 17.8324 22.257 16.0894 20.1117 16.0894Z" fill="#206BFF"/>
</svg>
