<svg width="64" height="83" viewBox="0 0 64 83" fill="none" xmlns="http://www.w3.org/2000/svg">
<path d="M7.4229 11.1629C7.4229 22.1614 14.3362 28.7055 28.1767 32.1563L42.8429 35.4971C55.9417 38.453 63.9185 45.7945 63.9185 57.7554C64.0204 62.9662 62.296 68.053 59.0345 72.1634C59.0345 60.23 52.751 53.7822 37.595 49.9052L23.1947 46.6881C11.6633 44.1035 2.7628 38.068 2.7628 25.076C2.7021 20.0589 4.3415 15.1644 7.4229 11.1629Z" fill="#0061F0"/>
<path d="M50.0221 54.827C56.2776 58.759 59.0205 64.2583 59.0205 72.1497C53.8426 78.666 44.7462 82.323 34.0545 82.323C16.0576 82.323 3.4626 73.6207 0.663696 58.4978H17.9468C20.172 65.4406 26.0636 68.6577 33.9285 68.6577C43.5287 68.6577 49.9102 63.6258 50.0361 54.7995" fill="#0061F0"/>
<path d="M16.4074 27.4682C13.5509 25.8004 11.2073 23.404 9.62551 20.5332C8.04371 17.6624 7.28251 14.4244 7.42301 11.1629C12.419 4.7013 21.1095 0.7556 31.7033 0.7556C50.0361 0.7556 60.6439 10.2693 63.2608 23.66H46.6354C44.8021 18.3807 40.212 14.27 31.8433 14.27C22.9008 14.27 16.7992 19.3843 16.4494 27.4682" fill="#0061F0"/>
</svg>
