<svg width="24" height="24" viewBox="0 0 24 24" fill="none" xmlns="http://www.w3.org/2000/svg">
<g clip-path="url(#clip0_306_132)">
<path d="M12 0C18.627 0 24 5.373 24 12C24 18.627 18.627 24 12 24C5.373 24 0 18.627 0 12C0 5.373 5.373 0 12 0ZM9.615 15.998C9.79001 16.643 9.771 17.246 9.591 17.79L9.52601 17.97C9.50201 18.031 9.474 18.09 9.44801 18.146C9.30802 18.436 9.12202 18.706 8.89301 18.956C8.19502 19.715 7.221 20.003 6.80302 19.761C6.35302 19.499 6.57701 18.426 7.38701 17.571C8.25802 16.653 9.507 16.062 9.507 16.062V16.059L9.615 15.998ZM19.526 5.13701C18.984 3.00401 15.449 2.30302 12.104 3.492C10.115 4.19899 7.95998 5.31 6.411 6.759C4.56799 8.47999 4.275 9.97999 4.39601 10.607C4.82302 12.818 7.85302 14.264 9.099 15.337V15.343C8.73199 15.523 6.04301 16.872 5.41301 18.268C4.73801 19.738 5.51801 20.789 6.02801 20.923C7.60301 21.359 9.22301 20.563 10.093 19.274C10.933 18.013 10.859 16.393 10.497 15.598C10.993 15.463 11.577 15.403 12.327 15.494C14.428 15.734 14.848 17.054 14.757 17.594C14.667 18.133 14.234 18.448 14.083 18.538C13.933 18.629 13.888 18.658 13.902 18.719C13.917 18.809 13.993 18.809 14.112 18.794C14.277 18.764 15.208 18.344 15.253 17.323C15.298 16.033 14.067 14.594 11.878 14.623C10.978 14.639 10.407 14.714 10.003 14.879C9.97301 14.834 9.942 14.804 9.89801 14.774C8.54801 13.319 6.04301 12.299 6.14801 10.364C6.17801 9.65899 6.43301 7.8 10.948 5.55C14.653 3.70399 17.609 4.215 18.119 5.34C18.852 6.94399 16.543 9.93 12.688 10.364C11.218 10.529 10.453 9.96 10.257 9.74899C10.048 9.52399 10.018 9.50899 9.94301 9.555C9.82301 9.615 9.89801 9.81 9.94301 9.93C10.063 10.23 10.528 10.755 11.339 11.025C12.043 11.25 13.769 11.384 15.839 10.575C18.163 9.67601 19.978 7.17 19.453 5.07L19.526 5.13701Z" fill="#0061F0"/>
</g>
<defs>
<clipPath id="clip0_306_132">
<rect width="24" height="24" fill="white"/>
</clipPath>
</defs>
</svg>
