<svg width="20" height="24" viewBox="0 0 20 24" fill="none" xmlns="http://www.w3.org/2000/svg">
<path d="M14.3387 0.241282L14.218 2.95203C14.2142 3.10425 14.3897 3.19798 14.5112 3.10425L15.5692 2.3034L16.4676 3.00227C16.5846 3.08026 16.7413 3.00227 16.7488 2.8613L16.6475 0.104057L17.9793 0.00282578C18.6707 -0.0444155 19.2601 0.506733 19.2601 1.20185V22.7994C19.2601 23.487 18.6857 24.0336 17.9988 23.9984L1.90002 23.28C1.27538 23.253 0.771476 22.7491 0.75198 22.12L0.00211853 2.3229C-0.0368743 1.65927 0.467032 1.08862 1.13066 1.05338L14.3275 0.221785L14.3387 0.241282ZM11.2695 9.30185C11.2695 9.77052 14.4294 9.54031 14.8584 9.22012C14.8584 6.02121 13.1397 4.33027 10 4.33027C6.8521 4.33027 5.10267 6.05271 5.10267 8.62248C5.10267 13.0707 11.1016 13.1486 11.1016 15.5782C11.1016 16.2816 10.7814 16.6797 10.051 16.6797C9.09044 16.6797 8.69976 16.1916 8.75075 14.5201C8.75075 14.161 5.10267 14.0395 4.98195 14.5201C4.71275 18.5506 7.21203 19.7182 10.0788 19.7182C12.8712 19.7182 15.0503 18.2305 15.0503 15.5392C15.0503 10.7708 8.95021 10.8991 8.95021 8.54075C8.95021 7.57192 9.67308 7.44295 10.0788 7.44295C10.5317 7.44295 11.3288 7.51344 11.2703 9.3101L11.2695 9.30185Z" fill="#206BFF"/>
</svg>
